<svg width="24" height="24" viewBox="0 0 24 24" fill="none" xmlns="http://www.w3.org/2000/svg">
<circle cx="12" cy="12" r="12" fill="white"/>
<path d="M5.8943 8.04V6.878H8.5263V17H7.2383V8.04H5.8943ZM10.7147 11.834C10.7147 10.2287 10.976 8.978 11.4987 8.082C12.0213 7.17667 12.936 6.724 14.2427 6.724C15.54 6.724 16.45 7.17667 16.9727 8.082C17.4953 8.978 17.7567 10.2287 17.7567 11.834C17.7567 13.4673 17.4953 14.7367 16.9727 15.642C16.45 16.5473 15.54 17 14.2427 17C12.936 17 12.0213 16.5473 11.4987 15.642C10.976 14.7367 10.7147 13.4673 10.7147 11.834ZM16.4967 11.834C16.4967 11.022 16.4407 10.336 16.3287 9.776C16.226 9.20667 16.0067 8.74933 15.6707 8.404C15.344 8.05867 14.868 7.886 14.2427 7.886C13.608 7.886 13.1227 8.05867 12.7867 8.404C12.46 8.74933 12.2407 9.20667 12.1287 9.776C12.026 10.336 11.9747 11.022 11.9747 11.834C11.9747 12.674 12.026 13.3787 12.1287 13.948C12.2407 14.5173 12.46 14.9747 12.7867 15.32C13.1227 15.6653 13.608 15.838 14.2427 15.838C14.868 15.838 15.344 15.6653 15.6707 15.32C16.0067 14.9747 16.226 14.5173 16.3287 13.948C16.4407 13.3787 16.4967 12.674 16.4967 11.834Z" fill="#015DA7"/>
</svg>
