<svg width="24" height="24" viewBox="0 0 24 24" fill="none" xmlns="http://www.w3.org/2000/svg">
<circle cx="12" cy="12" r="12" fill="white"/>
<path d="M6.26345 8.04V6.878H8.89545V17H7.60745V8.04H6.26345ZM10.9298 15.978C12.1152 15.026 13.0438 14.2467 13.7158 13.64C14.3878 13.024 14.9525 12.3847 15.4098 11.722C15.8765 11.05 16.1098 10.392 16.1098 9.748C16.1098 9.14133 15.9605 8.66533 15.6618 8.32C15.3725 7.96533 14.9012 7.788 14.2478 7.788C13.6132 7.788 13.1185 7.98867 12.7638 8.39C12.4185 8.782 12.2318 9.30933 12.2038 9.972H10.9718C11.0092 8.92667 11.3265 8.11933 11.9238 7.55C12.5212 6.98067 13.2912 6.696 14.2338 6.696C15.1952 6.696 15.9558 6.962 16.5158 7.494C17.0852 8.026 17.3698 8.75867 17.3698 9.692C17.3698 10.4667 17.1365 11.2227 16.6698 11.96C16.2125 12.688 15.6898 13.332 15.1018 13.892C14.5138 14.4427 13.7625 15.0867 12.8478 15.824H17.6638V16.888H10.9298V15.978Z" fill="#015DA7"/>
</svg>
