<svg width="24" height="24" viewBox="0 0 24 24" fill="none" xmlns="http://www.w3.org/2000/svg">
<circle cx="12" cy="12" r="12" fill="white"/>
<path d="M6.16774 8.04V6.878H8.79974V17H7.51174V8.04H6.16774ZM10.9601 9.426C11.0255 8.56733 11.3568 7.89533 11.9541 7.41C12.5515 6.92467 13.3261 6.682 14.2781 6.682C14.9128 6.682 15.4588 6.79867 15.9161 7.032C16.3828 7.256 16.7328 7.564 16.9661 7.956C17.2088 8.348 17.3301 8.79133 17.3301 9.286C17.3301 9.86467 17.1621 10.364 16.8261 10.784C16.4995 11.204 16.0701 11.4747 15.5381 11.596V11.666C16.1448 11.8153 16.6255 12.1093 16.9801 12.548C17.3348 12.9867 17.5121 13.5607 17.5121 14.27C17.5121 14.802 17.3908 15.2827 17.1481 15.712C16.9055 16.132 16.5415 16.4633 16.0561 16.706C15.5708 16.9487 14.9875 17.07 14.3061 17.07C13.3168 17.07 12.5048 16.8133 11.8701 16.3C11.2355 15.7773 10.8808 15.04 10.8061 14.088H12.0381C12.1035 14.648 12.3321 15.1053 12.7241 15.46C13.1161 15.8147 13.6388 15.992 14.2921 15.992C14.9455 15.992 15.4401 15.824 15.7761 15.488C16.1215 15.1427 16.2941 14.6993 16.2941 14.158C16.2941 13.458 16.0608 12.954 15.5941 12.646C15.1275 12.338 14.4228 12.184 13.4801 12.184H13.1581V11.12H13.4941C14.3528 11.1107 15.0015 10.9707 15.4401 10.7C15.8788 10.42 16.0981 9.99067 16.0981 9.412C16.0981 8.91733 15.9348 8.52067 15.6081 8.222C15.2908 7.92333 14.8335 7.774 14.2361 7.774C13.6575 7.774 13.1908 7.92333 12.8361 8.222C12.4815 8.52067 12.2715 8.922 12.2061 9.426H10.9601Z" fill="#015DA7"/>
</svg>
