<svg width="24" height="24" viewBox="0 0 24 24" fill="none" xmlns="http://www.w3.org/2000/svg">
<circle cx="12" cy="12" r="12" fill="white"/>
<path d="M8.68763 15.978C9.87297 15.026 10.8016 14.2467 11.4736 13.64C12.1456 13.024 12.7103 12.3847 13.1676 11.722C13.6343 11.05 13.8676 10.392 13.8676 9.748C13.8676 9.14133 13.7183 8.66533 13.4196 8.32C13.1303 7.96533 12.659 7.788 12.0056 7.788C11.371 7.788 10.8763 7.98867 10.5216 8.39C10.1763 8.782 9.98963 9.30933 9.96163 9.972H8.72963C8.76697 8.92667 9.0843 8.11933 9.68163 7.55C10.279 6.98067 11.049 6.696 11.9916 6.696C12.953 6.696 13.7136 6.962 14.2736 7.494C14.843 8.026 15.1276 8.75867 15.1276 9.692C15.1276 10.4667 14.8943 11.2227 14.4276 11.96C13.9703 12.688 13.4476 13.332 12.8596 13.892C12.2716 14.4427 11.5203 15.0867 10.6056 15.824H15.4216V16.888H8.68763V15.978Z" fill="#015DA7"/>
</svg>
