<svg width="24" height="24" viewBox="0 0 24 24" fill="none" xmlns="http://www.w3.org/2000/svg">
<circle cx="12" cy="12" r="12" fill="white"/>
<path d="M8.71793 9.426C8.78326 8.56733 9.1146 7.89533 9.71193 7.41C10.3093 6.92467 11.0839 6.682 12.0359 6.682C12.6706 6.682 13.2166 6.79867 13.6739 7.032C14.1406 7.256 14.4906 7.564 14.7239 7.956C14.9666 8.348 15.0879 8.79133 15.0879 9.286C15.0879 9.86467 14.9199 10.364 14.5839 10.784C14.2573 11.204 13.8279 11.4747 13.2959 11.596V11.666C13.9026 11.8153 14.3833 12.1093 14.7379 12.548C15.0926 12.9867 15.2699 13.5607 15.2699 14.27C15.2699 14.802 15.1486 15.2827 14.9059 15.712C14.6633 16.132 14.2993 16.4633 13.8139 16.706C13.3286 16.9487 12.7453 17.07 12.0639 17.07C11.0746 17.07 10.2626 16.8133 9.62793 16.3C8.99326 15.7773 8.6386 15.04 8.56393 14.088H9.79593C9.86126 14.648 10.0899 15.1053 10.4819 15.46C10.8739 15.8147 11.3966 15.992 12.0499 15.992C12.7033 15.992 13.1979 15.824 13.5339 15.488C13.8793 15.1427 14.0519 14.6993 14.0519 14.158C14.0519 13.458 13.8186 12.954 13.3519 12.646C12.8853 12.338 12.1806 12.184 11.2379 12.184H10.9159V11.12H11.2519C12.1106 11.1107 12.7593 10.9707 13.1979 10.7C13.6366 10.42 13.8559 9.99067 13.8559 9.412C13.8559 8.91733 13.6926 8.52067 13.3659 8.222C13.0486 7.92333 12.5913 7.774 11.9939 7.774C11.4153 7.774 10.9486 7.92333 10.5939 8.222C10.2393 8.52067 10.0293 8.922 9.96393 9.426H8.71793Z" fill="#015DA7"/>
</svg>
