<svg width="24" height="24" viewBox="0 0 24 24" fill="none" xmlns="http://www.w3.org/2000/svg">
<circle cx="12" cy="12" r="12" fill="white"/>
<path d="M14.9265 7.984H10.0125V11.176C10.2272 10.8773 10.5445 10.6347 10.9645 10.448C11.3845 10.252 11.8372 10.154 12.3225 10.154C13.0972 10.154 13.7272 10.3173 14.2125 10.644C14.6978 10.9613 15.0432 11.3767 15.2485 11.89C15.4632 12.394 15.5705 12.9307 15.5705 13.5C15.5705 14.172 15.4445 14.774 15.1925 15.306C14.9405 15.838 14.5532 16.258 14.0305 16.566C13.5172 16.874 12.8778 17.028 12.1125 17.028C11.1325 17.028 10.3392 16.776 9.73249 16.272C9.12583 15.768 8.75716 15.096 8.62649 14.256H9.87249C9.99383 14.788 10.2505 15.2033 10.6425 15.502C11.0345 15.8007 11.5292 15.95 12.1265 15.95C12.8638 15.95 13.4192 15.7307 13.7925 15.292C14.1658 14.844 14.3525 14.256 14.3525 13.528C14.3525 12.8 14.1658 12.24 13.7925 11.848C13.4192 11.4467 12.8685 11.246 12.1405 11.246C11.6458 11.246 11.2118 11.3673 10.8385 11.61C10.4745 11.8433 10.2085 12.1653 10.0405 12.576H8.83649V6.864H14.9265V7.984Z" fill="#015DA7"/>
</svg>
