<svg width="24" height="24" viewBox="0 0 24 24" fill="none" xmlns="http://www.w3.org/2000/svg">
<circle cx="12" cy="12" r="12" fill="white"/>
<path d="M14.0666 9.286C13.8613 8.25 13.222 7.732 12.1486 7.732C11.318 7.732 10.6973 8.054 10.2866 8.698C9.87597 9.33267 9.67531 10.3827 9.68464 11.848C9.89931 11.3627 10.254 10.9847 10.7486 10.714C11.2526 10.434 11.8126 10.294 12.4286 10.294C13.39 10.294 14.1553 10.5927 14.7246 11.19C15.3033 11.7873 15.5926 12.6133 15.5926 13.668C15.5926 14.3027 15.4666 14.872 15.2146 15.376C14.972 15.88 14.5986 16.2813 14.0946 16.58C13.6 16.8787 12.998 17.028 12.2886 17.028C11.3273 17.028 10.576 16.8133 10.0346 16.384C9.49331 15.9547 9.11531 15.362 8.90064 14.606C8.68597 13.85 8.57864 12.9167 8.57864 11.806C8.57864 8.38067 9.77331 6.668 12.1626 6.668C13.0773 6.668 13.796 6.91533 14.3186 7.41C14.8413 7.90467 15.1493 8.53 15.2426 9.286H14.0666ZM12.1626 11.372C11.7613 11.372 11.3833 11.456 11.0286 11.624C10.674 11.7827 10.3846 12.03 10.1606 12.366C9.94597 12.6927 9.83864 13.094 9.83864 13.57C9.83864 14.2793 10.044 14.858 10.4546 15.306C10.8653 15.7447 11.4533 15.964 12.2186 15.964C12.872 15.964 13.39 15.7633 13.7726 15.362C14.1646 14.9513 14.3606 14.4007 14.3606 13.71C14.3606 12.982 14.174 12.4127 13.8006 12.002C13.4273 11.582 12.8813 11.372 12.1626 11.372Z" fill="#015DA7"/>
</svg>
