<svg width="24" height="24" viewBox="0 0 24 24" fill="none" xmlns="http://www.w3.org/2000/svg">
<circle cx="12" cy="12" r="12" fill="white"/>
<path d="M10.3 11.736C9.77732 11.5307 9.37598 11.232 9.09598 10.84C8.81598 10.448 8.67598 9.972 8.67598 9.412C8.67598 8.908 8.80198 8.45533 9.05398 8.054C9.30598 7.64333 9.67932 7.32133 10.174 7.088C10.678 6.84533 11.2847 6.724 11.994 6.724C12.7033 6.724 13.3053 6.84533 13.8 7.088C14.304 7.32133 14.682 7.64333 14.934 8.054C15.1953 8.45533 15.326 8.908 15.326 9.412C15.326 9.95333 15.1813 10.4293 14.892 10.84C14.6027 11.2413 14.206 11.54 13.702 11.736C14.2807 11.9133 14.738 12.226 15.074 12.674C15.4193 13.1127 15.592 13.6447 15.592 14.27C15.592 14.8767 15.4427 15.4087 15.144 15.866C14.8453 16.314 14.4207 16.664 13.87 16.916C13.3287 17.1587 12.7033 17.28 11.994 17.28C11.2847 17.28 10.6593 17.1587 10.118 16.916C9.58598 16.664 9.17065 16.314 8.87198 15.866C8.57332 15.4087 8.42398 14.8767 8.42398 14.27C8.42398 13.6447 8.59198 13.108 8.92798 12.66C9.26398 12.212 9.72132 11.904 10.3 11.736ZM14.094 9.566C14.094 8.99667 13.9073 8.558 13.534 8.25C13.1607 7.942 12.6473 7.788 11.994 7.788C11.35 7.788 10.8413 7.942 10.468 8.25C10.0947 8.558 9.90798 9.00133 9.90798 9.58C9.90798 10.1027 10.0993 10.5227 10.482 10.84C10.874 11.1573 11.378 11.316 11.994 11.316C12.6193 11.316 13.1233 11.1573 13.506 10.84C13.898 10.5133 14.094 10.0887 14.094 9.566ZM11.994 12.296C11.3033 12.296 10.7387 12.4593 10.3 12.786C9.86132 13.1033 9.64198 13.584 9.64198 14.228C9.64198 14.8253 9.85198 15.306 10.272 15.67C10.7013 16.034 11.2753 16.216 11.994 16.216C12.7127 16.216 13.282 16.034 13.702 15.67C14.122 15.306 14.332 14.8253 14.332 14.228C14.332 13.6027 14.1173 13.1267 13.688 12.8C13.2587 12.464 12.694 12.296 11.994 12.296Z" fill="#015DA7"/>
</svg>
