<svg width="24" height="24" viewBox="0 0 24 24" fill="none" xmlns="http://www.w3.org/2000/svg">
<circle cx="12" cy="12" r="12" fill="white"/>
<path d="M10.0968 14.284C10.1902 14.816 10.4048 15.2267 10.7408 15.516C11.0862 15.8053 11.5482 15.95 12.1268 15.95C12.9015 15.95 13.4708 15.6467 13.8348 15.04C14.2082 14.4333 14.3855 13.4113 14.3668 11.974C14.1708 12.394 13.8442 12.7253 13.3868 12.968C12.9295 13.2013 12.4208 13.318 11.8608 13.318C11.2355 13.318 10.6755 13.192 10.1808 12.94C9.69549 12.6787 9.31282 12.3007 9.03282 11.806C8.75282 11.3113 8.61282 10.714 8.61282 10.014C8.61282 9.01533 8.90215 8.21267 9.48082 7.606C10.0595 6.99 10.8808 6.682 11.9448 6.682C13.2515 6.682 14.1662 7.10667 14.6888 7.956C15.2208 8.80533 15.4868 10.07 15.4868 11.75C15.4868 12.926 15.3795 13.8967 15.1648 14.662C14.9595 15.4273 14.6048 16.0107 14.1008 16.412C13.6062 16.8133 12.9248 17.014 12.0568 17.014C11.1048 17.014 10.3628 16.7573 9.83082 16.244C9.29882 15.7307 8.99549 15.0773 8.92082 14.284H10.0968ZM12.0708 12.24C12.6962 12.24 13.2095 12.0487 13.6108 11.666C14.0122 11.274 14.2128 10.7467 14.2128 10.084C14.2128 9.384 14.0168 8.81933 13.6248 8.39C13.2328 7.96067 12.6822 7.746 11.9728 7.746C11.3195 7.746 10.7968 7.95133 10.4048 8.362C10.0222 8.77267 9.83082 9.314 9.83082 9.986C9.83082 10.6673 10.0222 11.2133 10.4048 11.624C10.7875 12.0347 11.3428 12.24 12.0708 12.24Z" fill="#015DA7"/>
</svg>
