<svg width="91" height="91" viewBox="0 0 91 91" fill="none" xmlns="http://www.w3.org/2000/svg">
<rect width="91" height="91" rx="20" fill="#007527"/>
<path d="M51.5654 19.304C48.0629 18.4701 44.6855 18.9566 43.4346 19.304V14.6132H41.5583C40.5576 14.6132 40.1684 13.8487 40.0989 13.4665V9.40117C40.0989 8.81745 41.2803 8.25454 41.871 8.04605C45.5194 8.0113 52.9413 7.96265 53.4417 8.04605C53.942 8.12944 54.5536 8.98421 54.7968 9.40117C54.8316 10.5131 54.8802 12.8828 54.7968 13.4665C54.7134 14.0503 53.8587 14.6132 53.4417 14.8217H51.5654V19.304Z" fill="white"/>
<circle cx="47.5" cy="50.4297" r="26.5" stroke="white" stroke-width="6"/>
<path d="M45 52.8905V31C58.176 31 64.3887 41.0071 65.8481 46.0106L45 52.8905Z" fill="white"/>
<path d="M69.3551 25.002L68 26.3572L71.023 29.2759L72.2739 28.025L73.7332 29.4844C76.5686 27.1494 76.3045 24.9673 75.7138 24.2724C75.1926 23.6817 73.7749 22.2501 72.2739 21.2494C70.7728 20.2487 68.7992 22.5003 68 23.7511L69.3551 25.002Z" fill="white"/>
</svg>
