<svg width="21" height="20" viewBox="0 0 21 20" fill="none" xmlns="http://www.w3.org/2000/svg">
<line y1="-0.5" x2="20" y2="-0.5" transform="matrix(-1 -8.74228e-08 -8.74228e-08 1 21 1)" stroke="white"/>
<line y1="-0.5" x2="20" y2="-0.5" transform="matrix(-1 -8.74228e-08 -8.74228e-08 1 21 8.5)" stroke="white"/>
<path d="M0.646444 16.3536C0.451183 16.1583 0.451183 15.8417 0.646444 15.6464L3.82842 12.4645C4.02369 12.2692 4.34027 12.2692 4.53553 12.4645C4.7308 12.6597 4.7308 12.9763 4.53553 13.1716L1.70711 16L4.53553 18.8284C4.73079 19.0237 4.73079 19.3403 4.53553 19.5355C4.34027 19.7308 4.02369 19.7308 3.82842 19.5355L0.646444 16.3536ZM21 16.5L0.999998 16.5L0.999998 15.5L21 15.5L21 16.5Z" fill="white"/>
</svg>
