<svg width="19" height="21" viewBox="0 0 19 21" fill="none" xmlns="http://www.w3.org/2000/svg">
<line y1="-0.5" x2="20" y2="-0.5" transform="matrix(4.55007e-08 -1 -1 -4.19924e-08 18 21)" stroke="white"/>
<line y1="-0.5" x2="20" y2="-0.5" transform="matrix(4.55007e-08 -1 -1 -4.19924e-08 11.125 21)" stroke="white"/>
<path d="M3.89645 0.646442C4.09171 0.451181 4.40829 0.451181 4.60355 0.646442L7.78553 3.82842C7.9808 4.02369 7.9808 4.34027 7.78553 4.53553C7.59027 4.73079 7.27369 4.73079 7.07843 4.53553L4.25 1.7071L1.42157 4.53553C1.22631 4.73079 0.909729 4.73079 0.714467 4.53553C0.519205 4.34027 0.519205 4.02369 0.714467 3.82842L3.89645 0.646442ZM3.75 21L3.75 0.999996L4.75 0.999996L4.75 21L3.75 21Z" fill="white"/>
</svg>
