<svg width="23" height="21" viewBox="0 0 23 21" fill="none" xmlns="http://www.w3.org/2000/svg">
<line x1="23" y1="20.5" x2="1" y2="20.5" stroke="white"/>
<line x1="23" y1="12.375" x2="1" y2="12.375" stroke="white"/>
<path d="M0.646442 3.39645C0.45118 3.59171 0.45118 3.90829 0.646442 4.10356L3.82842 7.28554C4.02369 7.4808 4.34027 7.4808 4.53553 7.28554C4.73079 7.09027 4.73079 6.77369 4.53553 6.57843L1.7071 3.75L4.53553 0.921574C4.73079 0.726312 4.73079 0.40973 4.53553 0.214468C4.34027 0.0192056 4.02368 0.0192056 3.82842 0.214468L0.646442 3.39645ZM23 3.25L0.999996 3.25L0.999996 4.25L23 4.25L23 3.25Z" fill="white"/>
</svg>
