<svg width="22" height="23" viewBox="0 0 22 23" fill="none" xmlns="http://www.w3.org/2000/svg">
<path d="M5.63358 19.3536C5.43832 19.1583 5.43832 18.8417 5.63358 18.6464L8.81556 15.4645C9.01082 15.2692 9.32741 15.2692 9.52267 15.4645C9.71793 15.6597 9.71793 15.9763 9.52267 16.1716L6.69424 19L9.52267 21.8284C9.71793 22.0237 9.71793 22.3403 9.52267 22.5355C9.32741 22.7308 9.01082 22.7308 8.81556 22.5355L5.63358 19.3536ZM12.4519 19.5C12.44 19.5 12.4281 19.5 12.4163 19.5C12.4044 19.5 12.3926 19.5 12.3808 19.5C12.369 19.5 12.3572 19.5 12.3454 19.5C12.3336 19.5 12.3219 19.5 12.3101 19.5C12.2984 19.5 12.2867 19.5 12.275 19.5C12.2633 19.5 12.2516 19.5 12.24 19.5C12.2284 19.5 12.2167 19.5 12.2051 19.5C12.1935 19.5 12.1819 19.5 12.1704 19.5C12.1588 19.5 12.1473 19.5 12.1358 19.5C12.1243 19.5 12.1128 19.5 12.1013 19.5C12.0898 19.5 12.0784 19.5 12.0669 19.5C12.0555 19.5 12.0441 19.5 12.0327 19.5C12.0213 19.5 12.01 19.5 11.9986 19.5C11.9873 19.5 11.976 19.5 11.9647 19.5C11.9534 19.5 11.9421 19.5 11.9308 19.5C11.9196 19.5 11.9083 19.5 11.8971 19.5C11.8859 19.5 11.8747 19.5 11.8635 19.5C11.8523 19.5 11.8412 19.5 11.8301 19.5C11.8189 19.5 11.8078 19.5 11.7967 19.5C11.7856 19.5 11.7746 19.5 11.7635 19.5C11.7525 19.5 11.7415 19.5 11.7304 19.5C11.7194 19.5 11.7085 19.5 11.6975 19.5C11.6865 19.5 11.6756 19.5 11.6647 19.5C11.6537 19.5 11.6428 19.5 11.632 19.5C11.6211 19.5 11.6102 19.5 11.5994 19.5C11.5886 19.5 11.5777 19.5 11.5669 19.5C11.5561 19.5 11.5454 19.5 11.5346 19.5C11.5239 19.5 11.5131 19.5 11.5024 19.5C11.4917 19.5 11.481 19.5 11.4703 19.5C11.4597 19.5 11.449 19.5 11.4384 19.5C11.4277 19.5 11.4171 19.5 11.4066 19.5C11.396 19.5 11.3854 19.5 11.3748 19.5C11.3643 19.5 11.3538 19.5 11.3433 19.5C11.3328 19.5 11.3223 19.5 11.3118 19.5C11.3013 19.5 11.2909 19.5 11.2805 19.5C11.27 19.5 11.2596 19.5 11.2493 19.5C11.2389 19.5 11.2285 19.5 11.2182 19.5C11.2078 19.5 11.1975 19.5 11.1872 19.5C11.1769 19.5 11.1666 19.5 11.1563 19.5C11.1461 19.5 11.1358 19.5 11.1256 19.5C11.1154 19.5 11.1052 19.5 11.095 19.5C11.0848 19.5 11.0747 19.5 11.0645 19.5C11.0544 19.5 11.0443 19.5 11.0342 19.5C11.0241 19.5 11.014 19.5 11.0039 19.5C10.9939 19.5 10.9838 19.5 10.9738 19.5C10.9638 19.5 10.9538 19.5 10.9438 19.5C10.9338 19.5 10.9239 19.5 10.9139 19.5C10.904 19.5 10.8941 19.5 10.8842 19.5C10.8743 19.5 10.8644 19.5 10.8545 19.5C10.8447 19.5 10.8348 19.5 10.825 19.5C10.8152 19.5 10.8054 19.5 10.7956 19.5C10.7858 19.5 10.7761 19.5 10.7663 19.5C10.7566 19.5 10.7469 19.5 10.7372 19.5C10.7275 19.5 10.7178 19.5 10.7081 19.5C10.6985 19.5 10.6888 19.5 10.6792 19.5C10.6696 19.5 10.66 19.5 10.6504 19.5C10.6408 19.5 10.6312 19.5 10.6217 19.5C10.6121 19.5 10.6026 19.5 10.5931 19.5C10.5836 19.5 10.5741 19.5 10.5647 19.5C10.5552 19.5 10.5457 19.5 10.5363 19.5C10.5269 19.5 10.5175 19.5 10.5081 19.5C10.4987 19.5 10.4893 19.5 10.48 19.5C10.4706 19.5 10.4613 19.5 10.452 19.5C10.4427 19.5 10.4334 19.5 10.4241 19.5C10.4148 19.5 10.4056 19.5 10.3963 19.5C10.3871 19.5 10.3779 19.5 10.3687 19.5C10.3595 19.5 10.3503 19.5 10.3412 19.5C10.332 19.5 10.3229 19.5 10.3138 19.5C10.3046 19.5 10.2955 19.5 10.2865 19.5C10.2774 19.5 10.2683 19.5 10.2593 19.5C10.2502 19.5 10.2412 19.5 10.2322 19.5C10.2232 19.5 10.2142 19.5 10.2052 19.5C10.1963 19.5 10.1873 19.5 10.1784 19.5C10.1695 19.5 10.1606 19.5 10.1517 19.5C10.1428 19.5 10.1339 19.5 10.1251 19.5C10.1162 19.5 10.1074 19.5 10.0986 19.5C10.0897 19.5 10.0809 19.5 10.0722 19.5C10.0634 19.5 10.0546 19.5 10.0459 19.5C10.0372 19.5 10.0284 19.5 10.0197 19.5C10.011 19.5 10.0023 19.5 9.99367 19.5C9.98501 19.5 9.97636 19.5 9.96773 19.5C9.9591 19.5 9.95049 19.5 9.9419 19.5C9.93331 19.5 9.92474 19.5 9.91618 19.5C9.90763 19.5 9.8991 19.5 9.89058 19.5C9.88206 19.5 9.87356 19.5 9.86508 19.5C9.8566 19.5 9.84814 19.5 9.8397 19.5C9.83125 19.5 9.82283 19.5 9.81442 19.5C9.80602 19.5 9.79763 19.5 9.78926 19.5C9.78089 19.5 9.77254 19.5 9.7642 19.5C9.75587 19.5 9.74756 19.5 9.73926 19.5C9.73096 19.5 9.72268 19.5 9.71442 19.5C9.70616 19.5 9.69792 19.5 9.6897 19.5C9.68147 19.5 9.67327 19.5 9.66508 19.5C9.65689 19.5 9.64873 19.5 9.64057 19.5C9.63242 19.5 9.62429 19.5 9.61617 19.5C9.60806 19.5 9.59996 19.5 9.59188 19.5C9.5838 19.5 9.57574 19.5 9.5677 19.5C9.55966 19.5 9.55163 19.5 9.54362 19.5C9.53562 19.5 9.52763 19.5 9.51966 19.5C9.51169 19.5 9.50373 19.5 9.4958 19.5C9.48786 19.5 9.47994 19.5 9.47204 19.5C9.46414 19.5 9.45626 19.5 9.4484 19.5C9.44053 19.5 9.43269 19.5 9.42486 19.5C9.41703 19.5 9.40922 19.5 9.40142 19.5C9.39363 19.5 9.38586 19.5 9.3781 19.5C9.37034 19.5 9.3626 19.5 9.35488 19.5C9.34715 19.5 9.33945 19.5 9.33176 19.5C9.32407 19.5 9.3164 19.5 9.30875 19.5C9.3011 19.5 9.29346 19.5 9.28585 19.5C9.27823 19.5 9.27063 19.5 9.26305 19.5C9.25546 19.5 9.2479 19.5 9.24035 19.5C9.2328 19.5 9.22527 19.5 9.21776 19.5C9.21025 19.5 9.20275 19.5 9.19527 19.5C9.18779 19.5 9.18033 19.5 9.17289 19.5C9.16545 19.5 9.15802 19.5 9.15061 19.5C9.1432 19.5 9.13581 19.5 9.12844 19.5C9.12106 19.5 9.1137 19.5 9.10636 19.5C9.09902 19.5 9.0917 19.5 9.08439 19.5C9.07709 19.5 9.0698 19.5 9.06253 19.5C9.05526 19.5 9.048 19.5 9.04077 19.5C9.03353 19.5 9.02631 19.5 9.0191 19.5C9.0119 19.5 9.00471 19.5 8.99754 19.5C8.99038 19.5 8.98322 19.5 8.97609 19.5C8.96895 19.5 8.96183 19.5 8.95473 19.5C8.94763 19.5 8.94055 19.5 8.93348 19.5C8.92641 19.5 8.91936 19.5 8.91232 19.5C8.90529 19.5 8.89827 19.5 8.89127 19.5C8.88427 19.5 8.87729 19.5 8.87032 19.5C8.86335 19.5 8.8564 19.5 8.84947 19.5C8.84253 19.5 8.83562 19.5 8.82872 19.5C8.82182 19.5 8.81493 19.5 8.80807 19.5C8.8012 19.5 8.79435 19.5 8.78751 19.5C8.78068 19.5 8.77386 19.5 8.76706 19.5C8.76026 19.5 8.75348 19.5 8.74671 19.5C8.73994 19.5 8.73319 19.5 8.72646 19.5C8.71972 19.5 8.713 19.5 8.7063 19.5C8.6996 19.5 8.69291 19.5 8.68624 19.5C8.67957 19.5 8.67292 19.5 8.66629 19.5C8.65965 19.5 8.65303 19.5 8.64643 19.5C8.63982 19.5 8.63323 19.5 8.62666 19.5C8.62009 19.5 8.61354 19.5 8.607 19.5C8.60046 19.5 8.59394 19.5 8.58743 19.5C8.58092 19.5 8.57443 19.5 8.56796 19.5C8.56148 19.5 8.55503 19.5 8.54858 19.5C8.54214 19.5 8.53572 19.5 8.52931 19.5C8.5229 19.5 8.5165 19.5 8.51013 19.5C8.50375 19.5 8.49739 19.5 8.49104 19.5C8.4847 19.5 8.47837 19.5 8.47205 19.5C8.46574 19.5 8.45944 19.5 8.45316 19.5C8.44688 19.5 8.44061 19.5 8.43436 19.5C8.42811 19.5 8.42188 19.5 8.41566 19.5C8.40944 19.5 8.40324 19.5 8.39705 19.5C8.39086 19.5 8.38469 19.5 8.37854 19.5C8.37238 19.5 8.36624 19.5 8.36012 19.5C8.35399 19.5 8.34789 19.5 8.34179 19.5C8.3357 19.5 8.32962 19.5 8.32356 19.5C8.3175 19.5 8.31145 19.5 8.30542 19.5C8.29939 19.5 8.29338 19.5 8.28738 19.5C8.28138 19.5 8.2754 19.5 8.26943 19.5C8.26346 19.5 8.25751 19.5 8.25157 19.5C8.24564 19.5 8.23971 19.5 8.23381 19.5C8.2279 19.5 8.22201 19.5 8.21614 19.5C8.21026 19.5 8.2044 19.5 8.19856 19.5C8.19271 19.5 8.18688 19.5 8.18107 19.5C8.17525 19.5 8.16946 19.5 8.16367 19.5C8.15789 19.5 8.15212 19.5 8.14637 19.5C8.14061 19.5 8.13488 19.5 8.12915 19.5C8.12343 19.5 8.11772 19.5 8.11203 19.5C8.10634 19.5 8.10066 19.5 8.095 19.5C8.08934 19.5 8.08369 19.5 8.07806 19.5C8.07243 19.5 8.06681 19.5 8.06121 19.5C8.05561 19.5 8.05002 19.5 8.04445 19.5C8.03888 19.5 8.03332 19.5 8.02778 19.5C8.02224 19.5 8.01671 19.5 8.0112 19.5C8.00569 19.5 8.00019 19.5 7.99471 19.5C7.98922 19.5 7.98376 19.5 7.9783 19.5C7.97285 19.5 7.96741 19.5 7.96199 19.5C7.95657 19.5 7.95116 19.5 7.94577 19.5C7.94037 19.5 7.93499 19.5 7.92963 19.5C7.92427 19.5 7.91892 19.5 7.91358 19.5C7.90825 19.5 7.90293 19.5 7.89762 19.5C7.89232 19.5 7.88702 19.5 7.88175 19.5C7.87647 19.5 7.87121 19.5 7.86596 19.5C7.86072 19.5 7.85548 19.5 7.85027 19.5C7.84505 19.5 7.83984 19.5 7.83466 19.5C7.82947 19.5 7.82429 19.5 7.81913 19.5C7.81397 19.5 7.80883 19.5 7.80369 19.5C7.79856 19.5 7.79345 19.5 7.78834 19.5C7.78324 19.5 7.77815 19.5 7.77308 19.5C7.768 19.5 7.76294 19.5 7.7579 19.5C7.75285 19.5 7.74782 19.5 7.7428 19.5C7.73779 19.5 7.73278 19.5 7.7278 19.5C7.72281 19.5 7.71783 19.5 7.71287 19.5C7.70791 19.5 7.70297 19.5 7.69803 19.5C7.6931 19.5 7.68818 19.5 7.68328 19.5C7.67838 19.5 7.67349 19.5 7.66861 19.5C7.66373 19.5 7.65887 19.5 7.65403 19.5C7.64918 19.5 7.64434 19.5 7.63952 19.5C7.6347 19.5 7.6299 19.5 7.62511 19.5C7.62031 19.5 7.61554 19.5 7.61077 19.5C7.60601 19.5 7.60126 19.5 7.59652 19.5C7.59178 19.5 7.58706 19.5 7.58235 19.5C7.57764 19.5 7.57295 19.5 7.56827 19.5C7.56358 19.5 7.55892 19.5 7.55426 19.5C7.54961 19.5 7.54497 19.5 7.54034 19.5C7.53571 19.5 7.5311 19.5 7.5265 19.5C7.5219 19.5 7.51732 19.5 7.51274 19.5C7.50817 19.5 7.50361 19.5 7.49907 19.5C7.49452 19.5 7.48999 19.5 7.48547 19.5C7.48096 19.5 7.47645 19.5 7.47196 19.5C7.46747 19.5 7.46299 19.5 7.45853 19.5C7.45406 19.5 7.44961 19.5 7.44518 19.5C7.44074 19.5 7.43631 19.5 7.4319 19.5C7.42749 19.5 7.4231 19.5 7.41871 19.5C7.41433 19.5 7.40996 19.5 7.4056 19.5C7.40124 19.5 7.3969 19.5 7.39257 19.5C7.38824 19.5 7.38392 19.5 7.37961 19.5C7.37531 19.5 7.37102 19.5 7.36674 19.5C7.36246 19.5 7.3582 19.5 7.35394 19.5C7.34969 19.5 7.34545 19.5 7.34123 19.5C7.337 19.5 7.33279 19.5 7.32859 19.5C7.32439 19.5 7.3202 19.5 7.31603 19.5C7.31186 19.5 7.30769 19.5 7.30355 19.5C7.2994 19.5 7.29526 19.5 7.29114 19.5C7.28702 19.5 7.28291 19.5 7.27882 19.5C7.27472 19.5 7.27064 19.5 7.26657 19.5C7.26249 19.5 7.25844 19.5 7.25439 19.5C7.25035 19.5 7.24631 19.5 7.2423 19.5C7.23828 19.5 7.23427 19.5 7.23028 19.5C7.22628 19.5 7.2223 19.5 7.21833 19.5C7.21436 19.5 7.21041 19.5 7.20646 19.5C7.20252 19.5 7.19859 19.5 7.19467 19.5C7.19075 19.5 7.18685 19.5 7.18296 19.5C7.17906 19.5 7.17518 19.5 7.17131 19.5C7.16745 19.5 7.16359 19.5 7.15975 19.5C7.15591 19.5 7.15208 19.5 7.14826 19.5C7.14444 19.5 7.14063 19.5 7.13684 19.5C7.13305 19.5 7.12927 19.5 7.1255 19.5C7.12173 19.5 7.11797 19.5 7.11423 19.5C7.11049 19.5 7.10675 19.5 7.10303 19.5C7.09932 19.5 7.09561 19.5 7.09191 19.5C7.08822 19.5 7.08454 19.5 7.08087 19.5C7.0772 19.5 7.07354 19.5 7.06989 19.5C7.06625 19.5 7.06261 19.5 7.05899 19.5C7.05537 19.5 7.05176 19.5 7.04816 19.5C7.04456 19.5 7.04098 19.5 7.0374 19.5C7.03383 19.5 7.03027 19.5 7.02672 19.5C7.02317 19.5 7.01963 19.5 7.01611 19.5C7.01258 19.5 7.00907 19.5 7.00557 19.5C7.00206 19.5 6.99857 19.5 6.9951 19.5C6.99162 19.5 6.98815 19.5 6.9847 19.5C6.98124 19.5 6.9778 19.5 6.97437 19.5C6.97094 19.5 6.96752 19.5 6.96411 19.5C6.96071 19.5 6.95731 19.5 6.95393 19.5C6.95054 19.5 6.94717 19.5 6.94381 19.5C6.94045 19.5 6.9371 19.5 6.93377 19.5C6.93043 19.5 6.9271 19.5 6.92379 19.5C6.92048 19.5 6.91717 19.5 6.91388 19.5C6.91059 19.5 6.90731 19.5 6.90405 19.5C6.90078 19.5 6.89752 19.5 6.89428 19.5C6.89103 19.5 6.8878 19.5 6.88458 19.5C6.88136 19.5 6.87815 19.5 6.87495 19.5C6.87175 19.5 6.86856 19.5 6.86538 19.5C6.86221 19.5 6.85904 19.5 6.85589 19.5C6.85274 19.5 6.84959 19.5 6.84646 19.5C6.84333 19.5 6.84021 19.5 6.8371 19.5C6.83399 19.5 6.8309 19.5 6.82781 19.5C6.82472 19.5 6.82165 19.5 6.81859 19.5C6.81552 19.5 6.81247 19.5 6.80943 19.5C6.80639 19.5 6.80336 19.5 6.80034 19.5C6.79732 19.5 6.79431 19.5 6.79131 19.5C6.78832 19.5 6.78533 19.5 6.78235 19.5C6.77938 19.5 6.77641 19.5 6.77346 19.5C6.77051 19.5 6.76757 19.5 6.76463 19.5C6.7617 19.5 6.75878 19.5 6.75587 19.5C6.75296 19.5 6.75006 19.5 6.74718 19.5C6.74429 19.5 6.74141 19.5 6.73854 19.5C6.73568 19.5 6.73282 19.5 6.72998 19.5C6.72713 19.5 6.7243 19.5 6.72148 19.5C6.71865 19.5 6.71584 19.5 6.71304 19.5C6.71024 19.5 6.70744 19.5 6.70466 19.5C6.70188 19.5 6.69911 19.5 6.69635 19.5C6.69359 19.5 6.69085 19.5 6.68811 19.5C6.68537 19.5 6.68264 19.5 6.67992 19.5C6.67721 19.5 6.6745 19.5 6.6718 19.5C6.66911 19.5 6.66642 19.5 6.66375 19.5C6.66107 19.5 6.65841 19.5 6.65575 19.5C6.6531 19.5 6.65045 19.5 6.64782 19.5C6.64519 19.5 6.64256 19.5 6.63995 19.5C6.63734 19.5 6.63473 19.5 6.63214 19.5C6.62955 19.5 6.62697 19.5 6.62439 19.5C6.62182 19.5 6.61926 19.5 6.61671 19.5C6.61416 19.5 6.61161 19.5 6.60908 19.5C6.60655 19.5 6.60403 19.5 6.60152 19.5C6.59901 19.5 6.59651 19.5 6.59402 19.5C6.59153 19.5 6.58904 19.5 6.58657 19.5C6.5841 19.5 6.58164 19.5 6.57919 19.5C6.57674 19.5 6.5743 19.5 6.57187 19.5C6.56944 19.5 6.56702 19.5 6.56461 19.5C6.5622 19.5 6.55979 19.5 6.5574 19.5C6.55501 19.5 6.55263 19.5 6.55026 19.5C6.54789 19.5 6.54553 19.5 6.54317 19.5C6.54082 19.5 6.53848 19.5 6.53615 19.5C6.53382 19.5 6.53149 19.5 6.52918 19.5C6.52687 19.5 6.52456 19.5 6.52227 19.5C6.51998 19.5 6.51769 19.5 6.51542 19.5C6.51314 19.5 6.51088 19.5 6.50863 19.5C6.50637 19.5 6.50412 19.5 6.50189 19.5C6.49965 19.5 6.49743 19.5 6.49521 19.5C6.49299 19.5 6.49079 19.5 6.48859 19.5C6.48639 19.5 6.4842 19.5 6.48202 19.5C6.47984 19.5 6.47768 19.5 6.47552 19.5C6.47336 19.5 6.4712 19.5 6.46906 19.5C6.46692 19.5 6.46479 19.5 6.46267 19.5C6.46054 19.5 6.45843 19.5 6.45633 19.5C6.45422 19.5 6.45213 19.5 6.45004 19.5C6.44796 19.5 6.44588 19.5 6.44381 19.5C6.44175 19.5 6.43969 19.5 6.43764 19.5C6.43559 19.5 6.43355 19.5 6.43152 19.5C6.42949 19.5 6.42747 19.5 6.42546 19.5C6.42344 19.5 6.42144 19.5 6.41945 19.5C6.41745 19.5 6.41547 19.5 6.41349 19.5C6.41151 19.5 6.40955 19.5 6.40759 19.5C6.40563 19.5 6.40368 19.5 6.40174 19.5C6.3998 19.5 6.39787 19.5 6.39595 19.5C6.39402 19.5 6.39211 19.5 6.3902 19.5C6.3883 19.5 6.3864 19.5 6.38452 19.5C6.38263 19.5 6.38075 19.5 6.37888 19.5C6.37701 19.5 6.37515 19.5 6.3733 19.5C6.37145 19.5 6.3696 19.5 6.36777 19.5C6.36593 19.5 6.36411 19.5 6.36229 19.5C6.36047 19.5 6.35866 19.5 6.35686 19.5C6.35506 19.5 6.35327 19.5 6.35149 19.5C6.3497 19.5 6.34793 19.5 6.34616 19.5C6.3444 19.5 6.34264 19.5 6.34089 19.5C6.33914 19.5 6.3374 19.5 6.33567 19.5C6.33393 19.5 6.33221 19.5 6.3305 19.5C6.32878 19.5 6.32707 19.5 6.32537 19.5C6.32368 19.5 6.32199 19.5 6.3203 19.5C6.31862 19.5 6.31695 19.5 6.31528 19.5C6.31362 19.5 6.31196 19.5 6.31031 19.5C6.30866 19.5 6.30702 19.5 6.30539 19.5C6.30376 19.5 6.30213 19.5 6.30052 19.5C6.2989 19.5 6.29729 19.5 6.29569 19.5C6.29409 19.5 6.2925 19.5 6.29092 19.5C6.28933 19.5 6.28776 19.5 6.28619 19.5C6.28462 19.5 6.28306 19.5 6.28151 19.5C6.27996 19.5 6.27841 19.5 6.27688 19.5C6.27534 19.5 6.27382 19.5 6.2723 19.5C6.27078 19.5 6.26926 19.5 6.26776 19.5C6.26626 19.5 6.26476 19.5 6.26327 19.5C6.26178 19.5 6.2603 19.5 6.25883 19.5C6.25736 19.5 6.25589 19.5 6.25444 19.5C6.25298 19.5 6.25153 19.5 6.25009 19.5C6.24865 19.5 6.24721 19.5 6.24579 19.5C6.24436 19.5 6.24294 19.5 6.24153 19.5C6.24012 19.5 6.23872 19.5 6.23732 19.5C6.23593 19.5 6.23454 19.5 6.23316 19.5C6.23178 19.5 6.2304 19.5 6.22904 19.5C6.22767 19.5 6.22631 19.5 6.22496 19.5C6.22361 19.5 6.22227 19.5 6.22093 19.5C6.2196 19.5 6.21827 19.5 6.21695 19.5C6.21563 19.5 6.21432 19.5 6.21301 19.5C6.2117 19.5 6.21041 19.5 6.20911 19.5C6.20782 19.5 6.20654 19.5 6.20526 19.5C6.20399 19.5 6.20272 19.5 6.20145 19.5C6.20019 19.5 6.19894 19.5 6.19769 19.5C6.19644 19.5 6.1952 19.5 6.19397 19.5C6.19273 19.5 6.19151 19.5 6.19029 19.5C6.18907 19.5 6.18786 19.5 6.18665 19.5C6.18545 19.5 6.18425 19.5 6.18306 19.5C6.18187 19.5 6.18068 19.5 6.17951 19.5C6.17833 19.5 6.17716 19.5 6.176 19.5C6.17484 19.5 6.17368 19.5 6.17253 19.5C6.17138 19.5 6.17024 19.5 6.1691 19.5C6.16797 19.5 6.16684 19.5 6.16572 19.5C6.1646 19.5 6.16348 19.5 6.16238 19.5C6.16127 19.5 6.16017 19.5 6.15907 19.5C6.15798 19.5 6.15689 19.5 6.15581 19.5C6.15473 19.5 6.15365 19.5 6.15259 19.5C6.15152 19.5 6.15046 19.5 6.1494 19.5C6.14835 19.5 6.1473 19.5 6.14626 19.5C6.14522 19.5 6.14419 19.5 6.14316 19.5C6.14213 19.5 6.14111 19.5 6.1401 19.5C6.13908 19.5 6.13807 19.5 6.13707 19.5C6.13607 19.5 6.13508 19.5 6.13409 19.5C6.1331 19.5 6.13212 19.5 6.13114 19.5C6.13016 19.5 6.12919 19.5 6.12823 19.5C6.12727 19.5 6.12631 19.5 6.12536 19.5C6.12441 19.5 6.12347 19.5 6.12253 19.5C6.12159 19.5 6.12066 19.5 6.11973 19.5C6.11881 19.5 6.11789 19.5 6.11698 19.5C6.11606 19.5 6.11516 19.5 6.11426 19.5C6.11336 19.5 6.11246 19.5 6.11157 19.5C6.11068 19.5 6.1098 19.5 6.10893 19.5C6.10805 19.5 6.10718 19.5 6.10632 19.5C6.10545 19.5 6.10459 19.5 6.10374 19.5C6.10289 19.5 6.10204 19.5 6.1012 19.5C6.10036 19.5 6.09953 19.5 6.0987 19.5C6.09787 19.5 6.09705 19.5 6.09624 19.5C6.09542 19.5 6.09461 19.5 6.0938 19.5C6.093 19.5 6.0922 19.5 6.09141 19.5C6.09062 19.5 6.08983 19.5 6.08905 19.5C6.08827 19.5 6.08749 19.5 6.08672 19.5C6.08595 19.5 6.08519 19.5 6.08443 19.5C6.08367 19.5 6.08292 19.5 6.08217 19.5C6.08142 19.5 6.08068 19.5 6.07994 19.5C6.07921 19.5 6.07848 19.5 6.07775 19.5C6.07703 19.5 6.07631 19.5 6.0756 19.5C6.07488 19.5 6.07417 19.5 6.07347 19.5C6.07277 19.5 6.07207 19.5 6.07138 19.5C6.07069 19.5 6.07 19.5 6.06932 19.5C6.06864 19.5 6.06796 19.5 6.06729 19.5C6.06662 19.5 6.06596 19.5 6.0653 19.5C6.06464 19.5 6.06399 19.5 6.06334 19.5C6.06269 19.5 6.06204 19.5 6.06141 19.5C6.06077 19.5 6.06013 19.5 6.05951 19.5C6.05888 19.5 6.05826 19.5 6.05764 19.5C6.05702 19.5 6.05641 19.5 6.0558 19.5C6.05519 19.5 6.05459 19.5 6.05399 19.5C6.0534 19.5 6.05281 19.5 6.05222 19.5C6.05163 19.5 6.05105 19.5 6.05047 19.5C6.0499 19.5 6.04932 19.5 6.04876 19.5C6.04819 19.5 6.04763 19.5 6.04707 19.5C6.04651 19.5 6.04596 19.5 6.04541 19.5C6.04487 19.5 6.04432 19.5 6.04379 19.5C6.04325 19.5 6.04272 19.5 6.04219 19.5C6.04166 19.5 6.04114 19.5 6.04062 19.5C6.0401 19.5 6.03959 19.5 6.03908 19.5C6.03857 19.5 6.03807 19.5 6.03757 19.5C6.03707 19.5 6.03657 19.5 6.03608 19.5C6.03559 19.5 6.03511 19.5 6.03463 19.5C6.03414 19.5 6.03367 19.5 6.0332 19.5C6.03272 19.5 6.03226 19.5 6.03179 19.5C6.03133 19.5 6.03087 19.5 6.03042 19.5C6.02997 19.5 6.02952 19.5 6.02907 19.5C6.02863 19.5 6.02819 19.5 6.02775 19.5C6.02732 19.5 6.02688 19.5 6.02646 19.5C6.02603 19.5 6.02561 19.5 6.02519 19.5C6.02477 19.5 6.02436 19.5 6.02395 19.5C6.02354 19.5 6.02313 19.5 6.02273 19.5C6.02233 19.5 6.02193 19.5 6.02154 19.5C6.02115 19.5 6.02076 19.5 6.02037 19.5C6.01999 19.5 6.01961 19.5 6.01923 19.5C6.01886 19.5 6.01848 19.5 6.01812 19.5C6.01775 19.5 6.01738 19.5 6.01702 19.5C6.01666 19.5 6.01631 19.5 6.01596 19.5C6.0156 19.5 6.01526 19.5 6.01491 19.5C6.01457 19.5 6.01423 19.5 6.01389 19.5C6.01356 19.5 6.01323 19.5 6.0129 19.5C6.01257 19.5 6.01224 19.5 6.01192 19.5C6.0116 19.5 6.01129 19.5 6.01097 19.5C6.01066 19.5 6.01035 19.5 6.01005 19.5C6.00974 19.5 6.00944 19.5 6.00914 19.5C6.00885 19.5 6.00855 19.5 6.00826 19.5C6.00797 19.5 6.00768 19.5 6.0074 19.5C6.00712 19.5 6.00684 19.5 6.00656 19.5C6.00629 19.5 6.00602 19.5 6.00575 19.5C6.00548 19.5 6.00521 19.5 6.00495 19.5C6.00469 19.5 6.00443 19.5 6.00418 19.5C6.00392 19.5 6.00367 19.5 6.00342 19.5C6.00318 19.5 6.00293 19.5 6.00269 19.5C6.00245 19.5 6.00221 19.5 6.00198 19.5C6.00175 19.5 6.00152 19.5 6.00129 19.5C6.00106 19.5 6.00084 19.5 6.00062 19.5C6.0004 19.5 6.00018 19.5 5.99997 19.5C5.99975 19.5 5.99954 19.5 5.99933 19.5C5.99912 19.5 5.99892 19.5 5.99872 19.5C5.99852 19.5 5.99832 19.5 5.99812 19.5C5.99793 19.5 5.99774 19.5 5.99755 19.5C5.99736 19.5 5.99717 19.5 5.99699 19.5C5.99681 19.5 5.99663 19.5 5.99645 19.5C5.99628 19.5 5.9961 19.5 5.99593 19.5C5.99576 19.5 5.99559 19.5 5.99543 19.5C5.99526 19.5 5.9951 19.5 5.99494 19.5C5.99479 19.5 5.99463 19.5 5.99448 19.5C5.99432 19.5 5.99417 19.5 5.99402 19.5C5.99388 19.5 5.99373 19.5 5.99359 19.5C5.99345 19.5 5.99331 19.5 5.99317 19.5C5.99304 19.5 5.9929 19.5 5.99277 19.5C5.99264 19.5 5.99251 19.5 5.99239 19.5C5.99226 19.5 5.99214 19.5 5.99202 19.5C5.9919 19.5 5.99178 19.5 5.99166 19.5C5.99155 19.5 5.99144 19.5 5.99133 19.5C5.99122 19.5 5.99111 19.5 5.991 19.5C5.9909 19.5 5.99079 19.5 5.99069 19.5C5.99059 19.5 5.9905 19.5 5.9904 19.5C5.99031 19.5 5.99021 19.5 5.99012 19.5C5.99003 19.5 5.98994 19.5 5.98986 19.5C5.98977 19.5 5.98969 19.5 5.98961 19.5C5.98952 19.5 5.98945 19.5 5.98937 19.5C5.98929 19.5 5.98922 19.5 5.98915 19.5C5.98907 19.5 5.989 19.5 5.98893 19.5C5.98887 19.5 5.9888 19.5 5.98874 19.5C5.98867 19.5 5.98861 19.5 5.98855 19.5C5.98849 19.5 5.98844 19.5 5.98838 19.5C5.98833 19.5 5.98827 19.5 5.98822 19.5C5.98817 19.5 5.98812 19.5 5.98807 19.5C5.98803 19.5 5.98798 19.5 5.98794 19.5C5.98789 19.5 5.98785 19.5 5.98781 19.5C5.98777 19.5 5.98774 19.5 5.9877 19.5C5.98766 19.5 5.98763 19.5 5.9876 19.5C5.98757 19.5 5.98753 19.5 5.98751 19.5C5.98748 19.5 5.98745 19.5 5.98743 19.5C5.9874 19.5 5.98738 19.5 5.98736 19.5C5.98733 19.5 5.98731 19.5 5.9873 19.5C5.98728 19.5 5.98726 19.5 5.98725 19.5C5.98723 19.5 5.98722 19.5 5.98721 19.5C5.98719 19.5 5.98718 19.5 5.98717 19.5C5.98717 19.5 5.98716 19.5 5.98715 19.5C5.98715 19.5 5.98714 19.5 5.98714 19.5C5.98714 19.5 5.98713 19.5 5.98713 19C5.98713 18.5 5.98714 18.5 5.98714 18.5C5.98714 18.5 5.98715 18.5 5.98715 18.5C5.98716 18.5 5.98717 18.5 5.98717 18.5C5.98718 18.5 5.98719 18.5 5.98721 18.5C5.98722 18.5 5.98723 18.5 5.98725 18.5C5.98726 18.5 5.98728 18.5 5.9873 18.5C5.98731 18.5 5.98733 18.5 5.98736 18.5C5.98738 18.5 5.9874 18.5 5.98743 18.5C5.98745 18.5 5.98748 18.5 5.98751 18.5C5.98753 18.5 5.98757 18.5 5.9876 18.5C5.98763 18.5 5.98766 18.5 5.9877 18.5C5.98774 18.5 5.98777 18.5 5.98781 18.5C5.98785 18.5 5.98789 18.5 5.98794 18.5C5.98798 18.5 5.98803 18.5 5.98807 18.5C5.98812 18.5 5.98817 18.5 5.98822 18.5C5.98827 18.5 5.98833 18.5 5.98838 18.5C5.98844 18.5 5.98849 18.5 5.98855 18.5C5.98861 18.5 5.98867 18.5 5.98874 18.5C5.9888 18.5 5.98887 18.5 5.98893 18.5C5.989 18.5 5.98907 18.5 5.98915 18.5C5.98922 18.5 5.98929 18.5 5.98937 18.5C5.98945 18.5 5.98952 18.5 5.98961 18.5C5.98969 18.5 5.98977 18.5 5.98986 18.5C5.98994 18.5 5.99003 18.5 5.99012 18.5C5.99021 18.5 5.99031 18.5 5.9904 18.5C5.9905 18.5 5.99059 18.5 5.99069 18.5C5.99079 18.5 5.9909 18.5 5.991 18.5C5.99111 18.5 5.99122 18.5 5.99133 18.5C5.99144 18.5 5.99155 18.5 5.99166 18.5C5.99178 18.5 5.9919 18.5 5.99202 18.5C5.99214 18.5 5.99226 18.5 5.99239 18.5C5.99251 18.5 5.99264 18.5 5.99277 18.5C5.9929 18.5 5.99304 18.5 5.99317 18.5C5.99331 18.5 5.99345 18.5 5.99359 18.5C5.99373 18.5 5.99388 18.5 5.99402 18.5C5.99417 18.5 5.99432 18.5 5.99448 18.5C5.99463 18.5 5.99479 18.5 5.99494 18.5C5.9951 18.5 5.99526 18.5 5.99543 18.5C5.99559 18.5 5.99576 18.5 5.99593 18.5C5.9961 18.5 5.99628 18.5 5.99645 18.5C5.99663 18.5 5.99681 18.5 5.99699 18.5C5.99717 18.5 5.99736 18.5 5.99755 18.5C5.99774 18.5 5.99793 18.5 5.99812 18.5C5.99832 18.5 5.99852 18.5 5.99872 18.5C5.99892 18.5 5.99912 18.5 5.99933 18.5C5.99954 18.5 5.99975 18.5 5.99997 18.5C6.00018 18.5 6.0004 18.5 6.00062 18.5C6.00084 18.5 6.00106 18.5 6.00129 18.5C6.00152 18.5 6.00175 18.5 6.00198 18.5C6.00221 18.5 6.00245 18.5 6.00269 18.5C6.00293 18.5 6.00318 18.5 6.00342 18.5C6.00367 18.5 6.00392 18.5 6.00418 18.5C6.00443 18.5 6.00469 18.5 6.00495 18.5C6.00521 18.5 6.00548 18.5 6.00575 18.5C6.00602 18.5 6.00629 18.5 6.00656 18.5C6.00684 18.5 6.00712 18.5 6.0074 18.5C6.00768 18.5 6.00797 18.5 6.00826 18.5C6.00855 18.5 6.00885 18.5 6.00914 18.5C6.00944 18.5 6.00974 18.5 6.01005 18.5C6.01035 18.5 6.01066 18.5 6.01097 18.5C6.01129 18.5 6.0116 18.5 6.01192 18.5C6.01224 18.5 6.01257 18.5 6.0129 18.5C6.01323 18.5 6.01356 18.5 6.01389 18.5C6.01423 18.5 6.01457 18.5 6.01491 18.5C6.01526 18.5 6.0156 18.5 6.01596 18.5C6.01631 18.5 6.01666 18.5 6.01702 18.5C6.01738 18.5 6.01775 18.5 6.01812 18.5C6.01848 18.5 6.01886 18.5 6.01923 18.5C6.01961 18.5 6.01999 18.5 6.02037 18.5C6.02076 18.5 6.02115 18.5 6.02154 18.5C6.02193 18.5 6.02233 18.5 6.02273 18.5C6.02313 18.5 6.02354 18.5 6.02395 18.5C6.02436 18.5 6.02477 18.5 6.02519 18.5C6.02561 18.5 6.02603 18.5 6.02646 18.5C6.02688 18.5 6.02732 18.5 6.02775 18.5C6.02819 18.5 6.02863 18.5 6.02907 18.5C6.02952 18.5 6.02997 18.5 6.03042 18.5C6.03087 18.5 6.03133 18.5 6.03179 18.5C6.03226 18.5 6.03272 18.5 6.0332 18.5C6.03367 18.5 6.03414 18.5 6.03463 18.5C6.03511 18.5 6.03559 18.5 6.03608 18.5C6.03657 18.5 6.03707 18.5 6.03757 18.5C6.03807 18.5 6.03857 18.5 6.03908 18.5C6.03959 18.5 6.0401 18.5 6.04062 18.5C6.04114 18.5 6.04166 18.5 6.04219 18.5C6.04272 18.5 6.04325 18.5 6.04379 18.5C6.04432 18.5 6.04487 18.5 6.04541 18.5C6.04596 18.5 6.04651 18.5 6.04707 18.5C6.04763 18.5 6.04819 18.5 6.04876 18.5C6.04932 18.5 6.0499 18.5 6.05047 18.5C6.05105 18.5 6.05163 18.5 6.05222 18.5C6.05281 18.5 6.0534 18.5 6.05399 18.5C6.05459 18.5 6.05519 18.5 6.0558 18.5C6.05641 18.5 6.05702 18.5 6.05764 18.5C6.05826 18.5 6.05888 18.5 6.05951 18.5C6.06013 18.5 6.06077 18.5 6.06141 18.5C6.06204 18.5 6.06269 18.5 6.06334 18.5C6.06399 18.5 6.06464 18.5 6.0653 18.5C6.06596 18.5 6.06662 18.5 6.06729 18.5C6.06796 18.5 6.06864 18.5 6.06932 18.5C6.07 18.5 6.07069 18.5 6.07138 18.5C6.07207 18.5 6.07277 18.5 6.07347 18.5C6.07417 18.5 6.07488 18.5 6.0756 18.5C6.07631 18.5 6.07703 18.5 6.07775 18.5C6.07848 18.5 6.07921 18.5 6.07994 18.5C6.08068 18.5 6.08142 18.5 6.08217 18.5C6.08292 18.5 6.08367 18.5 6.08443 18.5C6.08519 18.5 6.08595 18.5 6.08672 18.5C6.08749 18.5 6.08827 18.5 6.08905 18.5C6.08983 18.5 6.09062 18.5 6.09141 18.5C6.0922 18.5 6.093 18.5 6.0938 18.5C6.09461 18.5 6.09542 18.5 6.09624 18.5C6.09705 18.5 6.09787 18.5 6.0987 18.5C6.09953 18.5 6.10036 18.5 6.1012 18.5C6.10204 18.5 6.10289 18.5 6.10374 18.5C6.10459 18.5 6.10545 18.5 6.10632 18.5C6.10718 18.5 6.10805 18.5 6.10893 18.5C6.1098 18.5 6.11068 18.5 6.11157 18.5C6.11246 18.5 6.11336 18.5 6.11426 18.5C6.11516 18.5 6.11606 18.5 6.11698 18.5C6.11789 18.5 6.11881 18.5 6.11973 18.5C6.12066 18.5 6.12159 18.5 6.12253 18.5C6.12347 18.5 6.12441 18.5 6.12536 18.5C6.12631 18.5 6.12727 18.5 6.12823 18.5C6.12919 18.5 6.13016 18.5 6.13114 18.5C6.13212 18.5 6.1331 18.5 6.13409 18.5C6.13508 18.5 6.13607 18.5 6.13707 18.5C6.13807 18.5 6.13908 18.5 6.1401 18.5C6.14111 18.5 6.14213 18.5 6.14316 18.5C6.14419 18.5 6.14522 18.5 6.14626 18.5C6.1473 18.5 6.14835 18.5 6.1494 18.5C6.15046 18.5 6.15152 18.5 6.15259 18.5C6.15365 18.5 6.15473 18.5 6.15581 18.5C6.15689 18.5 6.15798 18.5 6.15907 18.5C6.16017 18.5 6.16127 18.5 6.16238 18.5C6.16348 18.5 6.1646 18.5 6.16572 18.5C6.16684 18.5 6.16797 18.5 6.1691 18.5C6.17024 18.5 6.17138 18.5 6.17253 18.5C6.17368 18.5 6.17484 18.5 6.176 18.5C6.17716 18.5 6.17833 18.5 6.17951 18.5C6.18068 18.5 6.18187 18.5 6.18306 18.5C6.18425 18.5 6.18545 18.5 6.18665 18.5C6.18786 18.5 6.18907 18.5 6.19029 18.5C6.19151 18.5 6.19273 18.5 6.19397 18.5C6.1952 18.5 6.19644 18.5 6.19769 18.5C6.19894 18.5 6.20019 18.5 6.20145 18.5C6.20272 18.5 6.20399 18.5 6.20526 18.5C6.20654 18.5 6.20782 18.5 6.20911 18.5C6.21041 18.5 6.2117 18.5 6.21301 18.5C6.21432 18.5 6.21563 18.5 6.21695 18.5C6.21827 18.5 6.2196 18.5 6.22093 18.5C6.22227 18.5 6.22361 18.5 6.22496 18.5C6.22631 18.5 6.22767 18.5 6.22904 18.5C6.2304 18.5 6.23178 18.5 6.23316 18.5C6.23454 18.5 6.23593 18.5 6.23732 18.5C6.23872 18.5 6.24012 18.5 6.24153 18.5C6.24294 18.5 6.24436 18.5 6.24579 18.5C6.24721 18.5 6.24865 18.5 6.25009 18.5C6.25153 18.5 6.25298 18.5 6.25444 18.5C6.25589 18.5 6.25736 18.5 6.25883 18.5C6.2603 18.5 6.26178 18.5 6.26327 18.5C6.26476 18.5 6.26626 18.5 6.26776 18.5C6.26926 18.5 6.27078 18.5 6.2723 18.5C6.27382 18.5 6.27534 18.5 6.27688 18.5C6.27841 18.5 6.27996 18.5 6.28151 18.5C6.28306 18.5 6.28462 18.5 6.28619 18.5C6.28776 18.5 6.28933 18.5 6.29092 18.5C6.2925 18.5 6.29409 18.5 6.29569 18.5C6.29729 18.5 6.2989 18.5 6.30052 18.5C6.30213 18.5 6.30376 18.5 6.30539 18.5C6.30702 18.5 6.30866 18.5 6.31031 18.5C6.31196 18.5 6.31362 18.5 6.31528 18.5C6.31695 18.5 6.31862 18.5 6.3203 18.5C6.32199 18.5 6.32368 18.5 6.32537 18.5C6.32707 18.5 6.32878 18.5 6.3305 18.5C6.33221 18.5 6.33393 18.5 6.33567 18.5C6.3374 18.5 6.33914 18.5 6.34089 18.5C6.34264 18.5 6.3444 18.5 6.34616 18.5C6.34793 18.5 6.3497 18.5 6.35149 18.5C6.35327 18.5 6.35506 18.5 6.35686 18.5C6.35866 18.5 6.36047 18.5 6.36229 18.5C6.36411 18.5 6.36593 18.5 6.36777 18.5C6.3696 18.5 6.37145 18.5 6.3733 18.5C6.37515 18.5 6.37701 18.5 6.37888 18.5C6.38075 18.5 6.38263 18.5 6.38452 18.5C6.3864 18.5 6.3883 18.5 6.3902 18.5C6.39211 18.5 6.39402 18.5 6.39595 18.5C6.39787 18.5 6.3998 18.5 6.40174 18.5C6.40368 18.5 6.40563 18.5 6.40759 18.5C6.40955 18.5 6.41151 18.5 6.41349 18.5C6.41547 18.5 6.41745 18.5 6.41945 18.5C6.42144 18.5 6.42344 18.5 6.42546 18.5C6.42747 18.5 6.42949 18.5 6.43152 18.5C6.43355 18.5 6.43559 18.5 6.43764 18.5C6.43969 18.5 6.44175 18.5 6.44381 18.5C6.44588 18.5 6.44796 18.5 6.45004 18.5C6.45213 18.5 6.45422 18.5 6.45633 18.5C6.45843 18.5 6.46054 18.5 6.46267 18.5C6.46479 18.5 6.46692 18.5 6.46906 18.5C6.4712 18.5 6.47336 18.5 6.47552 18.5C6.47768 18.5 6.47984 18.5 6.48202 18.5C6.4842 18.5 6.48639 18.5 6.48859 18.5C6.49079 18.5 6.49299 18.5 6.49521 18.5C6.49743 18.5 6.49965 18.5 6.50189 18.5C6.50412 18.5 6.50637 18.5 6.50863 18.5C6.51088 18.5 6.51314 18.5 6.51542 18.5C6.51769 18.5 6.51998 18.5 6.52227 18.5C6.52456 18.5 6.52687 18.5 6.52918 18.5C6.53149 18.5 6.53382 18.5 6.53615 18.5C6.53848 18.5 6.54082 18.5 6.54317 18.5C6.54553 18.5 6.54789 18.5 6.55026 18.5C6.55263 18.5 6.55501 18.5 6.5574 18.5C6.55979 18.5 6.5622 18.5 6.56461 18.5C6.56702 18.5 6.56944 18.5 6.57187 18.5C6.5743 18.5 6.57674 18.5 6.57919 18.5C6.58164 18.5 6.5841 18.5 6.58657 18.5C6.58904 18.5 6.59153 18.5 6.59402 18.5C6.59651 18.5 6.59901 18.5 6.60152 18.5C6.60403 18.5 6.60655 18.5 6.60908 18.5C6.61161 18.5 6.61416 18.5 6.61671 18.5C6.61926 18.5 6.62182 18.5 6.62439 18.5C6.62697 18.5 6.62955 18.5 6.63214 18.5C6.63473 18.5 6.63734 18.5 6.63995 18.5C6.64256 18.5 6.64519 18.5 6.64782 18.5C6.65045 18.5 6.6531 18.5 6.65575 18.5C6.65841 18.5 6.66107 18.5 6.66375 18.5C6.66642 18.5 6.66911 18.5 6.6718 18.5C6.6745 18.5 6.67721 18.5 6.67992 18.5C6.68264 18.5 6.68537 18.5 6.68811 18.5C6.69085 18.5 6.69359 18.5 6.69635 18.5C6.69911 18.5 6.70188 18.5 6.70466 18.5C6.70744 18.5 6.71024 18.5 6.71304 18.5C6.71584 18.5 6.71865 18.5 6.72148 18.5C6.7243 18.5 6.72713 18.5 6.72998 18.5C6.73282 18.5 6.73568 18.5 6.73854 18.5C6.74141 18.5 6.74429 18.5 6.74718 18.5C6.75006 18.5 6.75296 18.5 6.75587 18.5C6.75878 18.5 6.7617 18.5 6.76463 18.5C6.76757 18.5 6.77051 18.5 6.77346 18.5C6.77641 18.5 6.77938 18.5 6.78235 18.5C6.78533 18.5 6.78832 18.5 6.79131 18.5C6.79431 18.5 6.79732 18.5 6.80034 18.5C6.80336 18.5 6.80639 18.5 6.80943 18.5C6.81247 18.5 6.81552 18.5 6.81859 18.5C6.82165 18.5 6.82472 18.5 6.82781 18.5C6.8309 18.5 6.83399 18.5 6.8371 18.5C6.84021 18.5 6.84333 18.5 6.84646 18.5C6.84959 18.5 6.85274 18.5 6.85589 18.5C6.85904 18.5 6.86221 18.5 6.86538 18.5C6.86856 18.5 6.87175 18.5 6.87495 18.5C6.87815 18.5 6.88136 18.5 6.88458 18.5C6.8878 18.5 6.89103 18.5 6.89428 18.5C6.89752 18.5 6.90078 18.5 6.90405 18.5C6.90731 18.5 6.91059 18.5 6.91388 18.5C6.91717 18.5 6.92048 18.5 6.92379 18.5C6.9271 18.5 6.93043 18.5 6.93377 18.5C6.9371 18.5 6.94045 18.5 6.94381 18.5C6.94717 18.5 6.95054 18.5 6.95393 18.5C6.95731 18.5 6.96071 18.5 6.96411 18.5C6.96752 18.5 6.97094 18.5 6.97437 18.5C6.9778 18.5 6.98124 18.5 6.9847 18.5C6.98815 18.5 6.99162 18.5 6.9951 18.5C6.99857 18.5 7.00206 18.5 7.00557 18.5C7.00907 18.5 7.01258 18.5 7.01611 18.5C7.01963 18.5 7.02317 18.5 7.02672 18.5C7.03027 18.5 7.03383 18.5 7.0374 18.5C7.04098 18.5 7.04456 18.5 7.04816 18.5C7.05176 18.5 7.05537 18.5 7.05899 18.5C7.06261 18.5 7.06625 18.5 7.06989 18.5C7.07354 18.5 7.0772 18.5 7.08087 18.5C7.08454 18.5 7.08822 18.5 7.09191 18.5C7.09561 18.5 7.09932 18.5 7.10303 18.5C7.10675 18.5 7.11049 18.5 7.11423 18.5C7.11797 18.5 7.12173 18.5 7.1255 18.5C7.12927 18.5 7.13305 18.5 7.13684 18.5C7.14063 18.5 7.14444 18.5 7.14826 18.5C7.15208 18.5 7.15591 18.5 7.15975 18.5C7.16359 18.5 7.16745 18.5 7.17131 18.5C7.17518 18.5 7.17906 18.5 7.18296 18.5C7.18685 18.5 7.19075 18.5 7.19467 18.5C7.19859 18.5 7.20252 18.5 7.20646 18.5C7.21041 18.5 7.21436 18.5 7.21833 18.5C7.2223 18.5 7.22628 18.5 7.23028 18.5C7.23427 18.5 7.23828 18.5 7.2423 18.5C7.24631 18.5 7.25035 18.5 7.25439 18.5C7.25844 18.5 7.26249 18.5 7.26657 18.5C7.27064 18.5 7.27472 18.5 7.27882 18.5C7.28291 18.5 7.28702 18.5 7.29114 18.5C7.29526 18.5 7.2994 18.5 7.30355 18.5C7.30769 18.5 7.31186 18.5 7.31603 18.5C7.3202 18.5 7.32439 18.5 7.32859 18.5C7.33279 18.5 7.337 18.5 7.34123 18.5C7.34545 18.5 7.34969 18.5 7.35394 18.5C7.3582 18.5 7.36246 18.5 7.36674 18.5C7.37102 18.5 7.37531 18.5 7.37961 18.5C7.38392 18.5 7.38824 18.5 7.39257 18.5C7.3969 18.5 7.40124 18.5 7.4056 18.5C7.40996 18.5 7.41433 18.5 7.41871 18.5C7.4231 18.5 7.42749 18.5 7.4319 18.5C7.43631 18.5 7.44074 18.5 7.44518 18.5C7.44961 18.5 7.45406 18.5 7.45853 18.5C7.46299 18.5 7.46747 18.5 7.47196 18.5C7.47645 18.5 7.48096 18.5 7.48547 18.5C7.48999 18.5 7.49452 18.5 7.49907 18.5C7.50361 18.5 7.50817 18.5 7.51274 18.5C7.51732 18.5 7.5219 18.5 7.5265 18.5C7.5311 18.5 7.53571 18.5 7.54034 18.5C7.54497 18.5 7.54961 18.5 7.55426 18.5C7.55892 18.5 7.56358 18.5 7.56827 18.5C7.57295 18.5 7.57764 18.5 7.58235 18.5C7.58706 18.5 7.59178 18.5 7.59652 18.5C7.60126 18.5 7.60601 18.5 7.61077 18.5C7.61554 18.5 7.62031 18.5 7.62511 18.5C7.6299 18.5 7.6347 18.5 7.63952 18.5C7.64434 18.5 7.64918 18.5 7.65403 18.5C7.65887 18.5 7.66373 18.5 7.66861 18.5C7.67349 18.5 7.67838 18.5 7.68328 18.5C7.68818 18.5 7.6931 18.5 7.69803 18.5C7.70297 18.5 7.70791 18.5 7.71287 18.5C7.71783 18.5 7.72281 18.5 7.7278 18.5C7.73278 18.5 7.73779 18.5 7.7428 18.5C7.74782 18.5 7.75285 18.5 7.7579 18.5C7.76294 18.5 7.768 18.5 7.77308 18.5C7.77815 18.5 7.78324 18.5 7.78834 18.5C7.79345 18.5 7.79856 18.5 7.80369 18.5C7.80883 18.5 7.81397 18.5 7.81913 18.5C7.82429 18.5 7.82947 18.5 7.83466 18.5C7.83984 18.5 7.84505 18.5 7.85027 18.5C7.85548 18.5 7.86072 18.5 7.86596 18.5C7.87121 18.5 7.87647 18.5 7.88175 18.5C7.88702 18.5 7.89232 18.5 7.89762 18.5C7.90293 18.5 7.90825 18.5 7.91358 18.5C7.91892 18.5 7.92427 18.5 7.92963 18.5C7.93499 18.5 7.94037 18.5 7.94577 18.5C7.95116 18.5 7.95657 18.5 7.96199 18.5C7.96741 18.5 7.97285 18.5 7.9783 18.5C7.98376 18.5 7.98922 18.5 7.99471 18.5C8.00019 18.5 8.00569 18.5 8.0112 18.5C8.01671 18.5 8.02224 18.5 8.02778 18.5C8.03332 18.5 8.03888 18.5 8.04445 18.5C8.05002 18.5 8.05561 18.5 8.06121 18.5C8.06681 18.5 8.07243 18.5 8.07806 18.5C8.08369 18.5 8.08934 18.5 8.095 18.5C8.10066 18.5 8.10634 18.5 8.11203 18.5C8.11772 18.5 8.12343 18.5 8.12915 18.5C8.13488 18.5 8.14061 18.5 8.14637 18.5C8.15212 18.5 8.15789 18.5 8.16367 18.5C8.16946 18.5 8.17525 18.5 8.18107 18.5C8.18688 18.5 8.19271 18.5 8.19856 18.5C8.2044 18.5 8.21026 18.5 8.21614 18.5C8.22201 18.5 8.2279 18.5 8.23381 18.5C8.23971 18.5 8.24564 18.5 8.25157 18.5C8.25751 18.5 8.26346 18.5 8.26943 18.5C8.2754 18.5 8.28138 18.5 8.28738 18.5C8.29338 18.5 8.29939 18.5 8.30542 18.5C8.31145 18.5 8.3175 18.5 8.32356 18.5C8.32962 18.5 8.3357 18.5 8.34179 18.5C8.34789 18.5 8.35399 18.5 8.36012 18.5C8.36624 18.5 8.37238 18.5 8.37854 18.5C8.38469 18.5 8.39086 18.5 8.39705 18.5C8.40324 18.5 8.40944 18.5 8.41566 18.5C8.42188 18.5 8.42811 18.5 8.43436 18.5C8.44061 18.5 8.44688 18.5 8.45316 18.5C8.45944 18.5 8.46574 18.5 8.47205 18.5C8.47837 18.5 8.4847 18.5 8.49104 18.5C8.49739 18.5 8.50375 18.5 8.51013 18.5C8.5165 18.5 8.5229 18.5 8.52931 18.5C8.53572 18.5 8.54214 18.5 8.54858 18.5C8.55503 18.5 8.56148 18.5 8.56796 18.5C8.57443 18.5 8.58092 18.5 8.58743 18.5C8.59394 18.5 8.60046 18.5 8.607 18.5C8.61354 18.5 8.62009 18.5 8.62666 18.5C8.63323 18.5 8.63982 18.5 8.64643 18.5C8.65303 18.5 8.65965 18.5 8.66629 18.5C8.67292 18.5 8.67957 18.5 8.68624 18.5C8.69291 18.5 8.6996 18.5 8.7063 18.5C8.713 18.5 8.71972 18.5 8.72646 18.5C8.73319 18.5 8.73994 18.5 8.74671 18.5C8.75348 18.5 8.76026 18.5 8.76706 18.5C8.77386 18.5 8.78068 18.5 8.78751 18.5C8.79435 18.5 8.8012 18.5 8.80807 18.5C8.81493 18.5 8.82182 18.5 8.82872 18.5C8.83562 18.5 8.84253 18.5 8.84947 18.5C8.8564 18.5 8.86335 18.5 8.87032 18.5C8.87729 18.5 8.88427 18.5 8.89127 18.5C8.89827 18.5 8.90529 18.5 8.91232 18.5C8.91936 18.5 8.92641 18.5 8.93348 18.5C8.94055 18.5 8.94763 18.5 8.95473 18.5C8.96183 18.5 8.96895 18.5 8.97609 18.5C8.98322 18.5 8.99038 18.5 8.99754 18.5C9.00471 18.5 9.0119 18.5 9.0191 18.5C9.02631 18.5 9.03353 18.5 9.04077 18.5C9.048 18.5 9.05526 18.5 9.06253 18.5C9.0698 18.5 9.07709 18.5 9.08439 18.5C9.0917 18.5 9.09902 18.5 9.10636 18.5C9.1137 18.5 9.12106 18.5 9.12844 18.5C9.13581 18.5 9.1432 18.5 9.15061 18.5C9.15802 18.5 9.16545 18.5 9.17289 18.5C9.18033 18.5 9.18779 18.5 9.19527 18.5C9.20275 18.5 9.21025 18.5 9.21776 18.5C9.22527 18.5 9.2328 18.5 9.24035 18.5C9.2479 18.5 9.25546 18.5 9.26305 18.5C9.27063 18.5 9.27823 18.5 9.28585 18.5C9.29346 18.5 9.3011 18.5 9.30875 18.5C9.3164 18.5 9.32407 18.5 9.33176 18.5C9.33945 18.5 9.34715 18.5 9.35488 18.5C9.3626 18.5 9.37034 18.5 9.3781 18.5C9.38586 18.5 9.39363 18.5 9.40142 18.5C9.40922 18.5 9.41703 18.5 9.42486 18.5C9.43269 18.5 9.44053 18.5 9.4484 18.5C9.45626 18.5 9.46414 18.5 9.47204 18.5C9.47994 18.5 9.48786 18.5 9.4958 18.5C9.50373 18.5 9.51169 18.5 9.51966 18.5C9.52763 18.5 9.53562 18.5 9.54362 18.5C9.55163 18.5 9.55966 18.5 9.5677 18.5C9.57574 18.5 9.5838 18.5 9.59188 18.5C9.59996 18.5 9.60806 18.5 9.61617 18.5C9.62429 18.5 9.63242 18.5 9.64057 18.5C9.64873 18.5 9.65689 18.5 9.66508 18.5C9.67327 18.5 9.68147 18.5 9.6897 18.5C9.69792 18.5 9.70616 18.5 9.71442 18.5C9.72268 18.5 9.73096 18.5 9.73926 18.5C9.74756 18.5 9.75587 18.5 9.7642 18.5C9.77254 18.5 9.78089 18.5 9.78926 18.5C9.79763 18.5 9.80602 18.5 9.81442 18.5C9.82283 18.5 9.83125 18.5 9.8397 18.5C9.84814 18.5 9.8566 18.5 9.86508 18.5C9.87356 18.5 9.88206 18.5 9.89058 18.5C9.8991 18.5 9.90763 18.5 9.91618 18.5C9.92474 18.5 9.93331 18.5 9.9419 18.5C9.95049 18.5 9.9591 18.5 9.96773 18.5C9.97636 18.5 9.98501 18.5 9.99367 18.5C10.0023 18.5 10.011 18.5 10.0197 18.5C10.0284 18.5 10.0372 18.5 10.0459 18.5C10.0546 18.5 10.0634 18.5 10.0722 18.5C10.0809 18.5 10.0897 18.5 10.0986 18.5C10.1074 18.5 10.1162 18.5 10.1251 18.5C10.1339 18.5 10.1428 18.5 10.1517 18.5C10.1606 18.5 10.1695 18.5 10.1784 18.5C10.1873 18.5 10.1963 18.5 10.2052 18.5C10.2142 18.5 10.2232 18.5 10.2322 18.5C10.2412 18.5 10.2502 18.5 10.2593 18.5C10.2683 18.5 10.2774 18.5 10.2865 18.5C10.2955 18.5 10.3046 18.5 10.3138 18.5C10.3229 18.5 10.332 18.5 10.3412 18.5C10.3503 18.5 10.3595 18.5 10.3687 18.5C10.3779 18.5 10.3871 18.5 10.3963 18.5C10.4056 18.5 10.4148 18.5 10.4241 18.5C10.4334 18.5 10.4427 18.5 10.452 18.5C10.4613 18.5 10.4706 18.5 10.48 18.5C10.4893 18.5 10.4987 18.5 10.5081 18.5C10.5175 18.5 10.5269 18.5 10.5363 18.5C10.5457 18.5 10.5552 18.5 10.5647 18.5C10.5741 18.5 10.5836 18.5 10.5931 18.5C10.6026 18.5 10.6121 18.5 10.6217 18.5C10.6312 18.5 10.6408 18.5 10.6504 18.5C10.66 18.5 10.6696 18.5 10.6792 18.5C10.6888 18.5 10.6985 18.5 10.7081 18.5C10.7178 18.5 10.7275 18.5 10.7372 18.5C10.7469 18.5 10.7566 18.5 10.7663 18.5C10.7761 18.5 10.7858 18.5 10.7956 18.5C10.8054 18.5 10.8152 18.5 10.825 18.5C10.8348 18.5 10.8447 18.5 10.8545 18.5C10.8644 18.5 10.8743 18.5 10.8842 18.5C10.8941 18.5 10.904 18.5 10.9139 18.5C10.9239 18.5 10.9338 18.5 10.9438 18.5C10.9538 18.5 10.9638 18.5 10.9738 18.5C10.9838 18.5 10.9939 18.5 11.0039 18.5C11.014 18.5 11.0241 18.5 11.0342 18.5C11.0443 18.5 11.0544 18.5 11.0645 18.5C11.0747 18.5 11.0848 18.5 11.095 18.5C11.1052 18.5 11.1154 18.5 11.1256 18.5C11.1358 18.5 11.1461 18.5 11.1563 18.5C11.1666 18.5 11.1769 18.5 11.1872 18.5C11.1975 18.5 11.2078 18.5 11.2182 18.5C11.2285 18.5 11.2389 18.5 11.2493 18.5C11.2596 18.5 11.27 18.5 11.2805 18.5C11.2909 18.5 11.3013 18.5 11.3118 18.5C11.3223 18.5 11.3328 18.5 11.3433 18.5C11.3538 18.5 11.3643 18.5 11.3748 18.5C11.3854 18.5 11.396 18.5 11.4066 18.5C11.4171 18.5 11.4277 18.5 11.4384 18.5C11.449 18.5 11.4597 18.5 11.4703 18.5C11.481 18.5 11.4917 18.5 11.5024 18.5C11.5131 18.5 11.5239 18.5 11.5346 18.5C11.5454 18.5 11.5561 18.5 11.5669 18.5C11.5777 18.5 11.5886 18.5 11.5994 18.5C11.6102 18.5 11.6211 18.5 11.632 18.5C11.6428 18.5 11.6537 18.5 11.6647 18.5C11.6756 18.5 11.6865 18.5 11.6975 18.5C11.7085 18.5 11.7194 18.5 11.7304 18.5C11.7415 18.5 11.7525 18.5 11.7635 18.5C11.7746 18.5 11.7856 18.5 11.7967 18.5C11.8078 18.5 11.8189 18.5 11.8301 18.5C11.8412 18.5 11.8523 18.5 11.8635 18.5C11.8747 18.5 11.8859 18.5 11.8971 18.5C11.9083 18.5 11.9196 18.5 11.9308 18.5C11.9421 18.5 11.9534 18.5 11.9647 18.5C11.976 18.5 11.9873 18.5 11.9986 18.5C12.01 18.5 12.0213 18.5 12.0327 18.5C12.0441 18.5 12.0555 18.5 12.0669 18.5C12.0784 18.5 12.0898 18.5 12.1013 18.5C12.1128 18.5 12.1243 18.5 12.1358 18.5C12.1473 18.5 12.1588 18.5 12.1704 18.5C12.1819 18.5 12.1935 18.5 12.2051 18.5C12.2167 18.5 12.2284 18.5 12.24 18.5C12.2516 18.5 12.2633 18.5 12.275 18.5C12.2867 18.5 12.2984 18.5 12.3101 18.5C12.3219 18.5 12.3336 18.5 12.3454 18.5C12.3572 18.5 12.369 18.5 12.3808 18.5C12.3926 18.5 12.4044 18.5 12.4163 18.5C12.4281 18.5 12.44 18.5 12.4519 18.5V19.5ZM0.5 13.9131C0.5 9.78345 1.07596 6.40067 3.00685 4.05707C4.95732 1.68971 8.18638 0.5 13.1908 0.5V1.5C8.32146 1.5 5.45513 2.65812 3.77864 4.69294C2.08258 6.75152 1.5 9.82527 1.5 13.9131H0.5ZM13.1908 0.5C16.0261 0.5 18.1574 1.69855 19.5496 3.50755C20.9311 5.30259 21.5666 7.67169 21.4945 10.0154C21.4223 12.3599 20.6408 14.7235 19.1313 16.5102C17.6124 18.308 15.3725 19.5 12.4519 19.5V18.5C15.0726 18.5 17.0349 17.442 18.3674 15.8648C19.7093 14.2765 20.4286 12.1401 20.495 9.98461C20.5613 7.82831 19.9731 5.69741 18.7572 4.11745C17.5519 2.55145 15.712 1.5 13.1908 1.5V0.5Z" fill="white"/>
</svg>
