<svg width="22" height="23" viewBox="0 0 22 23" fill="none" xmlns="http://www.w3.org/2000/svg">
<path d="M16.3664 19.3536C16.5617 19.1583 16.5617 18.8417 16.3664 18.6464L13.1844 15.4645C12.9892 15.2692 12.6726 15.2692 12.4773 15.4645C12.2821 15.6597 12.2821 15.9763 12.4773 16.1716L15.3058 19L12.4773 21.8284C12.2821 22.0237 12.2821 22.3403 12.4773 22.5355C12.6726 22.7308 12.9892 22.7308 13.1844 22.5355L16.3664 19.3536ZM9.54806 19.5C9.55997 19.5 9.57185 19.5 9.58371 19.5C9.59557 19.5 9.60741 19.5 9.61923 19.5C9.63105 19.5 9.64285 19.5 9.65462 19.5C9.66639 19.5 9.67815 19.5 9.68988 19.5C9.70161 19.5 9.71332 19.5 9.72501 19.5C9.73669 19.5 9.74836 19.5 9.76 19.5C9.77165 19.5 9.78327 19.5 9.79487 19.5C9.80647 19.5 9.81805 19.5 9.82961 19.5C9.84117 19.5 9.85271 19.5 9.86422 19.5C9.87574 19.5 9.88723 19.5 9.8987 19.5C9.91017 19.5 9.92162 19.5 9.93305 19.5C9.94448 19.5 9.95589 19.5 9.96728 19.5C9.97866 19.5 9.99003 19.5 10.0014 19.5C10.0127 19.5 10.024 19.5 10.0353 19.5C10.0466 19.5 10.0579 19.5 10.0692 19.5C10.0804 19.5 10.0917 19.5 10.1029 19.5C10.1141 19.5 10.1253 19.5 10.1365 19.5C10.1477 19.5 10.1588 19.5 10.1699 19.5C10.1811 19.5 10.1922 19.5 10.2033 19.5C10.2144 19.5 10.2254 19.5 10.2365 19.5C10.2475 19.5 10.2585 19.5 10.2696 19.5C10.2806 19.5 10.2915 19.5 10.3025 19.5C10.3135 19.5 10.3244 19.5 10.3353 19.5C10.3463 19.5 10.3572 19.5 10.368 19.5C10.3789 19.5 10.3898 19.5 10.4006 19.5C10.4114 19.5 10.4223 19.5 10.4331 19.5C10.4439 19.5 10.4546 19.5 10.4654 19.5C10.4761 19.5 10.4869 19.5 10.4976 19.5C10.5083 19.5 10.519 19.5 10.5297 19.5C10.5403 19.5 10.551 19.5 10.5616 19.5C10.5723 19.5 10.5829 19.5 10.5934 19.5C10.604 19.5 10.6146 19.5 10.6252 19.5C10.6357 19.5 10.6462 19.5 10.6567 19.5C10.6672 19.5 10.6777 19.5 10.6882 19.5C10.6987 19.5 10.7091 19.5 10.7195 19.5C10.73 19.5 10.7404 19.5 10.7507 19.5C10.7611 19.5 10.7715 19.5 10.7818 19.5C10.7922 19.5 10.8025 19.5 10.8128 19.5C10.8231 19.5 10.8334 19.5 10.8437 19.5C10.8539 19.5 10.8642 19.5 10.8744 19.5C10.8846 19.5 10.8948 19.5 10.905 19.5C10.9152 19.5 10.9253 19.5 10.9355 19.5C10.9456 19.5 10.9557 19.5 10.9658 19.5C10.9759 19.5 10.986 19.5 10.9961 19.5C11.0061 19.5 11.0162 19.5 11.0262 19.5C11.0362 19.5 11.0462 19.5 11.0562 19.5C11.0662 19.5 11.0761 19.5 11.0861 19.5C11.096 19.5 11.1059 19.5 11.1158 19.5C11.1257 19.5 11.1356 19.5 11.1455 19.5C11.1553 19.5 11.1652 19.5 11.175 19.5C11.1848 19.5 11.1946 19.5 11.2044 19.5C11.2142 19.5 11.2239 19.5 11.2337 19.5C11.2434 19.5 11.2531 19.5 11.2628 19.5C11.2725 19.5 11.2822 19.5 11.2919 19.5C11.3015 19.5 11.3112 19.5 11.3208 19.5C11.3304 19.5 11.34 19.5 11.3496 19.5C11.3592 19.5 11.3688 19.5 11.3783 19.5C11.3879 19.5 11.3974 19.5 11.4069 19.5C11.4164 19.5 11.4259 19.5 11.4353 19.5C11.4448 19.5 11.4543 19.5 11.4637 19.5C11.4731 19.5 11.4825 19.5 11.4919 19.5C11.5013 19.5 11.5107 19.5 11.52 19.5C11.5294 19.5 11.5387 19.5 11.548 19.5C11.5573 19.5 11.5666 19.5 11.5759 19.5C11.5852 19.5 11.5944 19.5 11.6037 19.5C11.6129 19.5 11.6221 19.5 11.6313 19.5C11.6405 19.5 11.6497 19.5 11.6588 19.5C11.668 19.5 11.6771 19.5 11.6862 19.5C11.6954 19.5 11.7045 19.5 11.7135 19.5C11.7226 19.5 11.7317 19.5 11.7407 19.5C11.7498 19.5 11.7588 19.5 11.7678 19.5C11.7768 19.5 11.7858 19.5 11.7948 19.5C11.8037 19.5 11.8127 19.5 11.8216 19.5C11.8305 19.5 11.8394 19.5 11.8483 19.5C11.8572 19.5 11.8661 19.5 11.8749 19.5C11.8838 19.5 11.8926 19.5 11.9014 19.5C11.9103 19.5 11.9191 19.5 11.9278 19.5C11.9366 19.5 11.9454 19.5 11.9541 19.5C11.9628 19.5 11.9716 19.5 11.9803 19.5C11.989 19.5 11.9977 19.5 12.0063 19.5C12.015 19.5 12.0236 19.5 12.0323 19.5C12.0409 19.5 12.0495 19.5 12.0581 19.5C12.0667 19.5 12.0753 19.5 12.0838 19.5C12.0924 19.5 12.1009 19.5 12.1094 19.5C12.1179 19.5 12.1264 19.5 12.1349 19.5C12.1434 19.5 12.1519 19.5 12.1603 19.5C12.1687 19.5 12.1772 19.5 12.1856 19.5C12.194 19.5 12.2024 19.5 12.2107 19.5C12.2191 19.5 12.2275 19.5 12.2358 19.5C12.2441 19.5 12.2524 19.5 12.2607 19.5C12.269 19.5 12.2773 19.5 12.2856 19.5C12.2938 19.5 12.3021 19.5 12.3103 19.5C12.3185 19.5 12.3267 19.5 12.3349 19.5C12.3431 19.5 12.3513 19.5 12.3594 19.5C12.3676 19.5 12.3757 19.5 12.3838 19.5C12.3919 19.5 12.4 19.5 12.4081 19.5C12.4162 19.5 12.4243 19.5 12.4323 19.5C12.4403 19.5 12.4484 19.5 12.4564 19.5C12.4644 19.5 12.4724 19.5 12.4803 19.5C12.4883 19.5 12.4963 19.5 12.5042 19.5C12.5121 19.5 12.5201 19.5 12.528 19.5C12.5359 19.5 12.5437 19.5 12.5516 19.5C12.5595 19.5 12.5673 19.5 12.5751 19.5C12.583 19.5 12.5908 19.5 12.5986 19.5C12.6064 19.5 12.6141 19.5 12.6219 19.5C12.6297 19.5 12.6374 19.5 12.6451 19.5C12.6528 19.5 12.6606 19.5 12.6682 19.5C12.6759 19.5 12.6836 19.5 12.6912 19.5C12.6989 19.5 12.7065 19.5 12.7142 19.5C12.7218 19.5 12.7294 19.5 12.737 19.5C12.7445 19.5 12.7521 19.5 12.7597 19.5C12.7672 19.5 12.7747 19.5 12.7822 19.5C12.7898 19.5 12.7972 19.5 12.8047 19.5C12.8122 19.5 12.8197 19.5 12.8271 19.5C12.8346 19.5 12.842 19.5 12.8494 19.5C12.8568 19.5 12.8642 19.5 12.8716 19.5C12.8789 19.5 12.8863 19.5 12.8936 19.5C12.901 19.5 12.9083 19.5 12.9156 19.5C12.9229 19.5 12.9302 19.5 12.9375 19.5C12.9447 19.5 12.952 19.5 12.9592 19.5C12.9665 19.5 12.9737 19.5 12.9809 19.5C12.9881 19.5 12.9953 19.5 13.0025 19.5C13.0096 19.5 13.0168 19.5 13.0239 19.5C13.031 19.5 13.0382 19.5 13.0453 19.5C13.0524 19.5 13.0595 19.5 13.0665 19.5C13.0736 19.5 13.0806 19.5 13.0877 19.5C13.0947 19.5 13.1017 19.5 13.1087 19.5C13.1157 19.5 13.1227 19.5 13.1297 19.5C13.1366 19.5 13.1436 19.5 13.1505 19.5C13.1575 19.5 13.1644 19.5 13.1713 19.5C13.1782 19.5 13.1851 19.5 13.1919 19.5C13.1988 19.5 13.2057 19.5 13.2125 19.5C13.2193 19.5 13.2261 19.5 13.2329 19.5C13.2397 19.5 13.2465 19.5 13.2533 19.5C13.2601 19.5 13.2668 19.5 13.2735 19.5C13.2803 19.5 13.287 19.5 13.2937 19.5C13.3004 19.5 13.3071 19.5 13.3138 19.5C13.3204 19.5 13.3271 19.5 13.3337 19.5C13.3404 19.5 13.347 19.5 13.3536 19.5C13.3602 19.5 13.3668 19.5 13.3733 19.5C13.3799 19.5 13.3865 19.5 13.393 19.5C13.3995 19.5 13.4061 19.5 13.4126 19.5C13.4191 19.5 13.4256 19.5 13.432 19.5C13.4385 19.5 13.445 19.5 13.4514 19.5C13.4579 19.5 13.4643 19.5 13.4707 19.5C13.4771 19.5 13.4835 19.5 13.4899 19.5C13.4963 19.5 13.5026 19.5 13.509 19.5C13.5153 19.5 13.5216 19.5 13.5279 19.5C13.5343 19.5 13.5406 19.5 13.5468 19.5C13.5531 19.5 13.5594 19.5 13.5656 19.5C13.5719 19.5 13.5781 19.5 13.5843 19.5C13.5906 19.5 13.5968 19.5 13.603 19.5C13.6091 19.5 13.6153 19.5 13.6215 19.5C13.6276 19.5 13.6338 19.5 13.6399 19.5C13.646 19.5 13.6521 19.5 13.6582 19.5C13.6643 19.5 13.6704 19.5 13.6764 19.5C13.6825 19.5 13.6885 19.5 13.6946 19.5C13.7006 19.5 13.7066 19.5 13.7126 19.5C13.7186 19.5 13.7246 19.5 13.7306 19.5C13.7365 19.5 13.7425 19.5 13.7484 19.5C13.7544 19.5 13.7603 19.5 13.7662 19.5C13.7721 19.5 13.778 19.5 13.7839 19.5C13.7897 19.5 13.7956 19.5 13.8014 19.5C13.8073 19.5 13.8131 19.5 13.8189 19.5C13.8247 19.5 13.8305 19.5 13.8363 19.5C13.8421 19.5 13.8479 19.5 13.8536 19.5C13.8594 19.5 13.8651 19.5 13.8708 19.5C13.8766 19.5 13.8823 19.5 13.888 19.5C13.8937 19.5 13.8993 19.5 13.905 19.5C13.9107 19.5 13.9163 19.5 13.9219 19.5C13.9276 19.5 13.9332 19.5 13.9388 19.5C13.9444 19.5 13.95 19.5 13.9556 19.5C13.9611 19.5 13.9667 19.5 13.9722 19.5C13.9778 19.5 13.9833 19.5 13.9888 19.5C13.9943 19.5 13.9998 19.5 14.0053 19.5C14.0108 19.5 14.0162 19.5 14.0217 19.5C14.0271 19.5 14.0326 19.5 14.038 19.5C14.0434 19.5 14.0488 19.5 14.0542 19.5C14.0596 19.5 14.065 19.5 14.0704 19.5C14.0757 19.5 14.0811 19.5 14.0864 19.5C14.0918 19.5 14.0971 19.5 14.1024 19.5C14.1077 19.5 14.113 19.5 14.1183 19.5C14.1235 19.5 14.1288 19.5 14.134 19.5C14.1393 19.5 14.1445 19.5 14.1497 19.5C14.155 19.5 14.1602 19.5 14.1653 19.5C14.1705 19.5 14.1757 19.5 14.1809 19.5C14.186 19.5 14.1912 19.5 14.1963 19.5C14.2014 19.5 14.2066 19.5 14.2117 19.5C14.2168 19.5 14.2218 19.5 14.2269 19.5C14.232 19.5 14.2371 19.5 14.2421 19.5C14.2471 19.5 14.2522 19.5 14.2572 19.5C14.2622 19.5 14.2672 19.5 14.2722 19.5C14.2772 19.5 14.2822 19.5 14.2871 19.5C14.2921 19.5 14.297 19.5 14.302 19.5C14.3069 19.5 14.3118 19.5 14.3167 19.5C14.3216 19.5 14.3265 19.5 14.3314 19.5C14.3363 19.5 14.3411 19.5 14.346 19.5C14.3508 19.5 14.3557 19.5 14.3605 19.5C14.3653 19.5 14.3701 19.5 14.3749 19.5C14.3797 19.5 14.3845 19.5 14.3892 19.5C14.394 19.5 14.3987 19.5 14.4035 19.5C14.4082 19.5 14.4129 19.5 14.4176 19.5C14.4224 19.5 14.4271 19.5 14.4317 19.5C14.4364 19.5 14.4411 19.5 14.4457 19.5C14.4504 19.5 14.455 19.5 14.4597 19.5C14.4643 19.5 14.4689 19.5 14.4735 19.5C14.4781 19.5 14.4827 19.5 14.4873 19.5C14.4918 19.5 14.4964 19.5 14.5009 19.5C14.5055 19.5 14.51 19.5 14.5145 19.5C14.519 19.5 14.5235 19.5 14.528 19.5C14.5325 19.5 14.537 19.5 14.5415 19.5C14.5459 19.5 14.5504 19.5 14.5548 19.5C14.5593 19.5 14.5637 19.5 14.5681 19.5C14.5725 19.5 14.5769 19.5 14.5813 19.5C14.5857 19.5 14.59 19.5 14.5944 19.5C14.5988 19.5 14.6031 19.5 14.6074 19.5C14.6118 19.5 14.6161 19.5 14.6204 19.5C14.6247 19.5 14.629 19.5 14.6333 19.5C14.6375 19.5 14.6418 19.5 14.6461 19.5C14.6503 19.5 14.6545 19.5 14.6588 19.5C14.663 19.5 14.6672 19.5 14.6714 19.5C14.6756 19.5 14.6798 19.5 14.684 19.5C14.6881 19.5 14.6923 19.5 14.6965 19.5C14.7006 19.5 14.7047 19.5 14.7089 19.5C14.713 19.5 14.7171 19.5 14.7212 19.5C14.7253 19.5 14.7294 19.5 14.7334 19.5C14.7375 19.5 14.7416 19.5 14.7456 19.5C14.7497 19.5 14.7537 19.5 14.7577 19.5C14.7617 19.5 14.7657 19.5 14.7697 19.5C14.7737 19.5 14.7777 19.5 14.7817 19.5C14.7856 19.5 14.7896 19.5 14.7935 19.5C14.7975 19.5 14.8014 19.5 14.8053 19.5C14.8092 19.5 14.8132 19.5 14.817 19.5C14.8209 19.5 14.8248 19.5 14.8287 19.5C14.8326 19.5 14.8364 19.5 14.8403 19.5C14.8441 19.5 14.8479 19.5 14.8517 19.5C14.8556 19.5 14.8594 19.5 14.8632 19.5C14.867 19.5 14.8707 19.5 14.8745 19.5C14.8783 19.5 14.882 19.5 14.8858 19.5C14.8895 19.5 14.8932 19.5 14.897 19.5C14.9007 19.5 14.9044 19.5 14.9081 19.5C14.9118 19.5 14.9155 19.5 14.9191 19.5C14.9228 19.5 14.9265 19.5 14.9301 19.5C14.9338 19.5 14.9374 19.5 14.941 19.5C14.9446 19.5 14.9482 19.5 14.9518 19.5C14.9554 19.5 14.959 19.5 14.9626 19.5C14.9662 19.5 14.9697 19.5 14.9733 19.5C14.9768 19.5 14.9804 19.5 14.9839 19.5C14.9874 19.5 14.9909 19.5 14.9944 19.5C14.9979 19.5 15.0014 19.5 15.0049 19.5C15.0084 19.5 15.0118 19.5 15.0153 19.5C15.0188 19.5 15.0222 19.5 15.0256 19.5C15.0291 19.5 15.0325 19.5 15.0359 19.5C15.0393 19.5 15.0427 19.5 15.0461 19.5C15.0495 19.5 15.0528 19.5 15.0562 19.5C15.0595 19.5 15.0629 19.5 15.0662 19.5C15.0696 19.5 15.0729 19.5 15.0762 19.5C15.0795 19.5 15.0828 19.5 15.0861 19.5C15.0894 19.5 15.0927 19.5 15.096 19.5C15.0992 19.5 15.1025 19.5 15.1057 19.5C15.109 19.5 15.1122 19.5 15.1154 19.5C15.1186 19.5 15.1219 19.5 15.1251 19.5C15.1283 19.5 15.1314 19.5 15.1346 19.5C15.1378 19.5 15.141 19.5 15.1441 19.5C15.1473 19.5 15.1504 19.5 15.1535 19.5C15.1567 19.5 15.1598 19.5 15.1629 19.5C15.166 19.5 15.1691 19.5 15.1722 19.5C15.1753 19.5 15.1784 19.5 15.1814 19.5C15.1845 19.5 15.1875 19.5 15.1906 19.5C15.1936 19.5 15.1966 19.5 15.1997 19.5C15.2027 19.5 15.2057 19.5 15.2087 19.5C15.2117 19.5 15.2147 19.5 15.2176 19.5C15.2206 19.5 15.2236 19.5 15.2265 19.5C15.2295 19.5 15.2324 19.5 15.2354 19.5C15.2383 19.5 15.2412 19.5 15.2441 19.5C15.247 19.5 15.2499 19.5 15.2528 19.5C15.2557 19.5 15.2586 19.5 15.2615 19.5C15.2643 19.5 15.2672 19.5 15.27 19.5C15.2729 19.5 15.2757 19.5 15.2785 19.5C15.2813 19.5 15.2842 19.5 15.287 19.5C15.2898 19.5 15.2926 19.5 15.2953 19.5C15.2981 19.5 15.3009 19.5 15.3036 19.5C15.3064 19.5 15.3092 19.5 15.3119 19.5C15.3146 19.5 15.3174 19.5 15.3201 19.5C15.3228 19.5 15.3255 19.5 15.3282 19.5C15.3309 19.5 15.3336 19.5 15.3363 19.5C15.3389 19.5 15.3416 19.5 15.3442 19.5C15.3469 19.5 15.3495 19.5 15.3522 19.5C15.3548 19.5 15.3574 19.5 15.3601 19.5C15.3627 19.5 15.3653 19.5 15.3679 19.5C15.3705 19.5 15.373 19.5 15.3756 19.5C15.3782 19.5 15.3807 19.5 15.3833 19.5C15.3858 19.5 15.3884 19.5 15.3909 19.5C15.3934 19.5 15.396 19.5 15.3985 19.5C15.401 19.5 15.4035 19.5 15.406 19.5C15.4085 19.5 15.411 19.5 15.4134 19.5C15.4159 19.5 15.4184 19.5 15.4208 19.5C15.4233 19.5 15.4257 19.5 15.4281 19.5C15.4306 19.5 15.433 19.5 15.4354 19.5C15.4378 19.5 15.4402 19.5 15.4426 19.5C15.445 19.5 15.4474 19.5 15.4497 19.5C15.4521 19.5 15.4545 19.5 15.4568 19.5C15.4592 19.5 15.4615 19.5 15.4639 19.5C15.4662 19.5 15.4685 19.5 15.4708 19.5C15.4731 19.5 15.4754 19.5 15.4777 19.5C15.48 19.5 15.4823 19.5 15.4846 19.5C15.4869 19.5 15.4891 19.5 15.4914 19.5C15.4936 19.5 15.4959 19.5 15.4981 19.5C15.5003 19.5 15.5026 19.5 15.5048 19.5C15.507 19.5 15.5092 19.5 15.5114 19.5C15.5136 19.5 15.5158 19.5 15.518 19.5C15.5202 19.5 15.5223 19.5 15.5245 19.5C15.5266 19.5 15.5288 19.5 15.5309 19.5C15.5331 19.5 15.5352 19.5 15.5373 19.5C15.5395 19.5 15.5416 19.5 15.5437 19.5C15.5458 19.5 15.5479 19.5 15.55 19.5C15.552 19.5 15.5541 19.5 15.5562 19.5C15.5583 19.5 15.5603 19.5 15.5624 19.5C15.5644 19.5 15.5664 19.5 15.5685 19.5C15.5705 19.5 15.5725 19.5 15.5745 19.5C15.5766 19.5 15.5786 19.5 15.5806 19.5C15.5825 19.5 15.5845 19.5 15.5865 19.5C15.5885 19.5 15.5905 19.5 15.5924 19.5C15.5944 19.5 15.5963 19.5 15.5983 19.5C15.6002 19.5 15.6021 19.5 15.6041 19.5C15.606 19.5 15.6079 19.5 15.6098 19.5C15.6117 19.5 15.6136 19.5 15.6155 19.5C15.6174 19.5 15.6192 19.5 15.6211 19.5C15.623 19.5 15.6248 19.5 15.6267 19.5C15.6286 19.5 15.6304 19.5 15.6322 19.5C15.6341 19.5 15.6359 19.5 15.6377 19.5C15.6395 19.5 15.6413 19.5 15.6431 19.5C15.6449 19.5 15.6467 19.5 15.6485 19.5C15.6503 19.5 15.6521 19.5 15.6538 19.5C15.6556 19.5 15.6574 19.5 15.6591 19.5C15.6609 19.5 15.6626 19.5 15.6643 19.5C15.6661 19.5 15.6678 19.5 15.6695 19.5C15.6712 19.5 15.6729 19.5 15.6746 19.5C15.6763 19.5 15.678 19.5 15.6797 19.5C15.6814 19.5 15.6831 19.5 15.6847 19.5C15.6864 19.5 15.688 19.5 15.6897 19.5C15.6913 19.5 15.693 19.5 15.6946 19.5C15.6962 19.5 15.6979 19.5 15.6995 19.5C15.7011 19.5 15.7027 19.5 15.7043 19.5C15.7059 19.5 15.7075 19.5 15.7091 19.5C15.7107 19.5 15.7122 19.5 15.7138 19.5C15.7154 19.5 15.7169 19.5 15.7185 19.5C15.72 19.5 15.7216 19.5 15.7231 19.5C15.7247 19.5 15.7262 19.5 15.7277 19.5C15.7292 19.5 15.7307 19.5 15.7322 19.5C15.7337 19.5 15.7352 19.5 15.7367 19.5C15.7382 19.5 15.7397 19.5 15.7412 19.5C15.7426 19.5 15.7441 19.5 15.7456 19.5C15.747 19.5 15.7485 19.5 15.7499 19.5C15.7514 19.5 15.7528 19.5 15.7542 19.5C15.7556 19.5 15.7571 19.5 15.7585 19.5C15.7599 19.5 15.7613 19.5 15.7627 19.5C15.7641 19.5 15.7655 19.5 15.7668 19.5C15.7682 19.5 15.7696 19.5 15.771 19.5C15.7723 19.5 15.7737 19.5 15.775 19.5C15.7764 19.5 15.7777 19.5 15.7791 19.5C15.7804 19.5 15.7817 19.5 15.783 19.5C15.7844 19.5 15.7857 19.5 15.787 19.5C15.7883 19.5 15.7896 19.5 15.7909 19.5C15.7922 19.5 15.7935 19.5 15.7947 19.5C15.796 19.5 15.7973 19.5 15.7985 19.5C15.7998 19.5 15.8011 19.5 15.8023 19.5C15.8036 19.5 15.8048 19.5 15.806 19.5C15.8073 19.5 15.8085 19.5 15.8097 19.5C15.8109 19.5 15.8121 19.5 15.8133 19.5C15.8146 19.5 15.8158 19.5 15.8169 19.5C15.8181 19.5 15.8193 19.5 15.8205 19.5C15.8217 19.5 15.8228 19.5 15.824 19.5C15.8252 19.5 15.8263 19.5 15.8275 19.5C15.8286 19.5 15.8298 19.5 15.8309 19.5C15.832 19.5 15.8332 19.5 15.8343 19.5C15.8354 19.5 15.8365 19.5 15.8376 19.5C15.8387 19.5 15.8398 19.5 15.8409 19.5C15.842 19.5 15.8431 19.5 15.8442 19.5C15.8453 19.5 15.8463 19.5 15.8474 19.5C15.8485 19.5 15.8495 19.5 15.8506 19.5C15.8516 19.5 15.8527 19.5 15.8537 19.5C15.8548 19.5 15.8558 19.5 15.8568 19.5C15.8579 19.5 15.8589 19.5 15.8599 19.5C15.8609 19.5 15.8619 19.5 15.8629 19.5C15.8639 19.5 15.8649 19.5 15.8659 19.5C15.8669 19.5 15.8679 19.5 15.8689 19.5C15.8698 19.5 15.8708 19.5 15.8718 19.5C15.8727 19.5 15.8737 19.5 15.8746 19.5C15.8756 19.5 15.8765 19.5 15.8775 19.5C15.8784 19.5 15.8793 19.5 15.8803 19.5C15.8812 19.5 15.8821 19.5 15.883 19.5C15.8839 19.5 15.8848 19.5 15.8857 19.5C15.8866 19.5 15.8875 19.5 15.8884 19.5C15.8893 19.5 15.8902 19.5 15.8911 19.5C15.8919 19.5 15.8928 19.5 15.8937 19.5C15.8945 19.5 15.8954 19.5 15.8963 19.5C15.8971 19.5 15.898 19.5 15.8988 19.5C15.8996 19.5 15.9005 19.5 15.9013 19.5C15.9021 19.5 15.9029 19.5 15.9038 19.5C15.9046 19.5 15.9054 19.5 15.9062 19.5C15.907 19.5 15.9078 19.5 15.9086 19.5C15.9094 19.5 15.9102 19.5 15.911 19.5C15.9117 19.5 15.9125 19.5 15.9133 19.5C15.914 19.5 15.9148 19.5 15.9156 19.5C15.9163 19.5 15.9171 19.5 15.9178 19.5C15.9186 19.5 15.9193 19.5 15.9201 19.5C15.9208 19.5 15.9215 19.5 15.9222 19.5C15.923 19.5 15.9237 19.5 15.9244 19.5C15.9251 19.5 15.9258 19.5 15.9265 19.5C15.9272 19.5 15.9279 19.5 15.9286 19.5C15.9293 19.5 15.93 19.5 15.9307 19.5C15.9314 19.5 15.932 19.5 15.9327 19.5C15.9334 19.5 15.934 19.5 15.9347 19.5C15.9354 19.5 15.936 19.5 15.9367 19.5C15.9373 19.5 15.938 19.5 15.9386 19.5C15.9392 19.5 15.9399 19.5 15.9405 19.5C15.9411 19.5 15.9417 19.5 15.9424 19.5C15.943 19.5 15.9436 19.5 15.9442 19.5C15.9448 19.5 15.9454 19.5 15.946 19.5C15.9466 19.5 15.9472 19.5 15.9478 19.5C15.9484 19.5 15.949 19.5 15.9495 19.5C15.9501 19.5 15.9507 19.5 15.9512 19.5C15.9518 19.5 15.9524 19.5 15.9529 19.5C15.9535 19.5 15.954 19.5 15.9546 19.5C15.9551 19.5 15.9557 19.5 15.9562 19.5C15.9568 19.5 15.9573 19.5 15.9578 19.5C15.9583 19.5 15.9589 19.5 15.9594 19.5C15.9599 19.5 15.9604 19.5 15.9609 19.5C15.9614 19.5 15.9619 19.5 15.9624 19.5C15.9629 19.5 15.9634 19.5 15.9639 19.5C15.9644 19.5 15.9649 19.5 15.9654 19.5C15.9659 19.5 15.9663 19.5 15.9668 19.5C15.9673 19.5 15.9677 19.5 15.9682 19.5C15.9687 19.5 15.9691 19.5 15.9696 19.5C15.97 19.5 15.9705 19.5 15.9709 19.5C15.9714 19.5 15.9718 19.5 15.9722 19.5C15.9727 19.5 15.9731 19.5 15.9735 19.5C15.974 19.5 15.9744 19.5 15.9748 19.5C15.9752 19.5 15.9756 19.5 15.9761 19.5C15.9765 19.5 15.9769 19.5 15.9773 19.5C15.9777 19.5 15.9781 19.5 15.9785 19.5C15.9789 19.5 15.9792 19.5 15.9796 19.5C15.98 19.5 15.9804 19.5 15.9808 19.5C15.9811 19.5 15.9815 19.5 15.9819 19.5C15.9823 19.5 15.9826 19.5 15.983 19.5C15.9833 19.5 15.9837 19.5 15.984 19.5C15.9844 19.5 15.9847 19.5 15.9851 19.5C15.9854 19.5 15.9858 19.5 15.9861 19.5C15.9864 19.5 15.9868 19.5 15.9871 19.5C15.9874 19.5 15.9878 19.5 15.9881 19.5C15.9884 19.5 15.9887 19.5 15.989 19.5C15.9893 19.5 15.9896 19.5 15.99 19.5C15.9903 19.5 15.9906 19.5 15.9909 19.5C15.9912 19.5 15.9914 19.5 15.9917 19.5C15.992 19.5 15.9923 19.5 15.9926 19.5C15.9929 19.5 15.9932 19.5 15.9934 19.5C15.9937 19.5 15.994 19.5 15.9943 19.5C15.9945 19.5 15.9948 19.5 15.995 19.5C15.9953 19.5 15.9956 19.5 15.9958 19.5C15.9961 19.5 15.9963 19.5 15.9966 19.5C15.9968 19.5 15.9971 19.5 15.9973 19.5C15.9975 19.5 15.9978 19.5 15.998 19.5C15.9983 19.5 15.9985 19.5 15.9987 19.5C15.9989 19.5 15.9992 19.5 15.9994 19.5C15.9996 19.5 15.9998 19.5 16 19.5C16.0002 19.5 16.0005 19.5 16.0007 19.5C16.0009 19.5 16.0011 19.5 16.0013 19.5C16.0015 19.5 16.0017 19.5 16.0019 19.5C16.0021 19.5 16.0023 19.5 16.0025 19.5C16.0026 19.5 16.0028 19.5 16.003 19.5C16.0032 19.5 16.0034 19.5 16.0035 19.5C16.0037 19.5 16.0039 19.5 16.0041 19.5C16.0042 19.5 16.0044 19.5 16.0046 19.5C16.0047 19.5 16.0049 19.5 16.0051 19.5C16.0052 19.5 16.0054 19.5 16.0055 19.5C16.0057 19.5 16.0058 19.5 16.006 19.5C16.0061 19.5 16.0063 19.5 16.0064 19.5C16.0066 19.5 16.0067 19.5 16.0068 19.5C16.007 19.5 16.0071 19.5 16.0072 19.5C16.0074 19.5 16.0075 19.5 16.0076 19.5C16.0077 19.5 16.0079 19.5 16.008 19.5C16.0081 19.5 16.0082 19.5 16.0083 19.5C16.0085 19.5 16.0086 19.5 16.0087 19.5C16.0088 19.5 16.0089 19.5 16.009 19.5C16.0091 19.5 16.0092 19.5 16.0093 19.5C16.0094 19.5 16.0095 19.5 16.0096 19.5C16.0097 19.5 16.0098 19.5 16.0099 19.5C16.01 19.5 16.0101 19.5 16.0101 19.5C16.0102 19.5 16.0103 19.5 16.0104 19.5C16.0105 19.5 16.0106 19.5 16.0106 19.5C16.0107 19.5 16.0108 19.5 16.0109 19.5C16.0109 19.5 16.011 19.5 16.0111 19.5C16.0111 19.5 16.0112 19.5 16.0113 19.5C16.0113 19.5 16.0114 19.5 16.0114 19.5C16.0115 19.5 16.0116 19.5 16.0116 19.5C16.0117 19.5 16.0117 19.5 16.0118 19.5C16.0118 19.5 16.0119 19.5 16.0119 19.5C16.012 19.5 16.012 19.5 16.0121 19.5C16.0121 19.5 16.0121 19.5 16.0122 19.5C16.0122 19.5 16.0123 19.5 16.0123 19.5C16.0123 19.5 16.0124 19.5 16.0124 19.5C16.0124 19.5 16.0125 19.5 16.0125 19.5C16.0125 19.5 16.0125 19.5 16.0126 19.5C16.0126 19.5 16.0126 19.5 16.0126 19.5C16.0127 19.5 16.0127 19.5 16.0127 19.5C16.0127 19.5 16.0127 19.5 16.0128 19.5C16.0128 19.5 16.0128 19.5 16.0128 19.5C16.0128 19.5 16.0128 19.5 16.0128 19.5C16.0128 19.5 16.0128 19.5 16.0128 19.5C16.0129 19.5 16.0129 19.5 16.0129 19.5C16.0129 19.5 16.0129 19.5 16.0129 19C16.0129 18.5 16.0129 18.5 16.0129 18.5C16.0129 18.5 16.0129 18.5 16.0128 18.5C16.0128 18.5 16.0128 18.5 16.0128 18.5C16.0128 18.5 16.0128 18.5 16.0128 18.5C16.0128 18.5 16.0128 18.5 16.0128 18.5C16.0127 18.5 16.0127 18.5 16.0127 18.5C16.0127 18.5 16.0127 18.5 16.0126 18.5C16.0126 18.5 16.0126 18.5 16.0126 18.5C16.0125 18.5 16.0125 18.5 16.0125 18.5C16.0125 18.5 16.0124 18.5 16.0124 18.5C16.0124 18.5 16.0123 18.5 16.0123 18.5C16.0123 18.5 16.0122 18.5 16.0122 18.5C16.0121 18.5 16.0121 18.5 16.0121 18.5C16.012 18.5 16.012 18.5 16.0119 18.5C16.0119 18.5 16.0118 18.5 16.0118 18.5C16.0117 18.5 16.0117 18.5 16.0116 18.5C16.0116 18.5 16.0115 18.5 16.0114 18.5C16.0114 18.5 16.0113 18.5 16.0113 18.5C16.0112 18.5 16.0111 18.5 16.0111 18.5C16.011 18.5 16.0109 18.5 16.0109 18.5C16.0108 18.5 16.0107 18.5 16.0106 18.5C16.0106 18.5 16.0105 18.5 16.0104 18.5C16.0103 18.5 16.0102 18.5 16.0101 18.5C16.0101 18.5 16.01 18.5 16.0099 18.5C16.0098 18.5 16.0097 18.5 16.0096 18.5C16.0095 18.5 16.0094 18.5 16.0093 18.5C16.0092 18.5 16.0091 18.5 16.009 18.5C16.0089 18.5 16.0088 18.5 16.0087 18.5C16.0086 18.5 16.0085 18.5 16.0083 18.5C16.0082 18.5 16.0081 18.5 16.008 18.5C16.0079 18.5 16.0077 18.5 16.0076 18.5C16.0075 18.5 16.0074 18.5 16.0072 18.5C16.0071 18.5 16.007 18.5 16.0068 18.5C16.0067 18.5 16.0066 18.5 16.0064 18.5C16.0063 18.5 16.0061 18.5 16.006 18.5C16.0058 18.5 16.0057 18.5 16.0055 18.5C16.0054 18.5 16.0052 18.5 16.0051 18.5C16.0049 18.5 16.0047 18.5 16.0046 18.5C16.0044 18.5 16.0042 18.5 16.0041 18.5C16.0039 18.5 16.0037 18.5 16.0035 18.5C16.0034 18.5 16.0032 18.5 16.003 18.5C16.0028 18.5 16.0026 18.5 16.0025 18.5C16.0023 18.5 16.0021 18.5 16.0019 18.5C16.0017 18.5 16.0015 18.5 16.0013 18.5C16.0011 18.5 16.0009 18.5 16.0007 18.5C16.0005 18.5 16.0002 18.5 16 18.5C15.9998 18.5 15.9996 18.5 15.9994 18.5C15.9992 18.5 15.9989 18.5 15.9987 18.5C15.9985 18.5 15.9983 18.5 15.998 18.5C15.9978 18.5 15.9975 18.5 15.9973 18.5C15.9971 18.5 15.9968 18.5 15.9966 18.5C15.9963 18.5 15.9961 18.5 15.9958 18.5C15.9956 18.5 15.9953 18.5 15.995 18.5C15.9948 18.5 15.9945 18.5 15.9943 18.5C15.994 18.5 15.9937 18.5 15.9934 18.5C15.9932 18.5 15.9929 18.5 15.9926 18.5C15.9923 18.5 15.992 18.5 15.9917 18.5C15.9914 18.5 15.9912 18.5 15.9909 18.5C15.9906 18.5 15.9903 18.5 15.99 18.5C15.9896 18.5 15.9893 18.5 15.989 18.5C15.9887 18.5 15.9884 18.5 15.9881 18.5C15.9878 18.5 15.9874 18.5 15.9871 18.5C15.9868 18.5 15.9864 18.5 15.9861 18.5C15.9858 18.5 15.9854 18.5 15.9851 18.5C15.9847 18.5 15.9844 18.5 15.984 18.5C15.9837 18.5 15.9833 18.5 15.983 18.5C15.9826 18.5 15.9823 18.5 15.9819 18.5C15.9815 18.5 15.9811 18.5 15.9808 18.5C15.9804 18.5 15.98 18.5 15.9796 18.5C15.9792 18.5 15.9789 18.5 15.9785 18.5C15.9781 18.5 15.9777 18.5 15.9773 18.5C15.9769 18.5 15.9765 18.5 15.9761 18.5C15.9756 18.5 15.9752 18.5 15.9748 18.5C15.9744 18.5 15.974 18.5 15.9735 18.5C15.9731 18.5 15.9727 18.5 15.9722 18.5C15.9718 18.5 15.9714 18.5 15.9709 18.5C15.9705 18.5 15.97 18.5 15.9696 18.5C15.9691 18.5 15.9687 18.5 15.9682 18.5C15.9677 18.5 15.9673 18.5 15.9668 18.5C15.9663 18.5 15.9659 18.5 15.9654 18.5C15.9649 18.5 15.9644 18.5 15.9639 18.5C15.9634 18.5 15.9629 18.5 15.9624 18.5C15.9619 18.5 15.9614 18.5 15.9609 18.5C15.9604 18.5 15.9599 18.5 15.9594 18.5C15.9589 18.5 15.9583 18.5 15.9578 18.5C15.9573 18.5 15.9568 18.5 15.9562 18.5C15.9557 18.5 15.9551 18.5 15.9546 18.5C15.954 18.5 15.9535 18.5 15.9529 18.5C15.9524 18.5 15.9518 18.5 15.9512 18.5C15.9507 18.5 15.9501 18.5 15.9495 18.5C15.949 18.5 15.9484 18.5 15.9478 18.5C15.9472 18.5 15.9466 18.5 15.946 18.5C15.9454 18.5 15.9448 18.5 15.9442 18.5C15.9436 18.5 15.943 18.5 15.9424 18.5C15.9417 18.5 15.9411 18.5 15.9405 18.5C15.9399 18.5 15.9392 18.5 15.9386 18.5C15.938 18.5 15.9373 18.5 15.9367 18.5C15.936 18.5 15.9354 18.5 15.9347 18.5C15.934 18.5 15.9334 18.5 15.9327 18.5C15.932 18.5 15.9314 18.5 15.9307 18.5C15.93 18.5 15.9293 18.5 15.9286 18.5C15.9279 18.5 15.9272 18.5 15.9265 18.5C15.9258 18.5 15.9251 18.5 15.9244 18.5C15.9237 18.5 15.923 18.5 15.9222 18.5C15.9215 18.5 15.9208 18.5 15.9201 18.5C15.9193 18.5 15.9186 18.5 15.9178 18.5C15.9171 18.5 15.9163 18.5 15.9156 18.5C15.9148 18.5 15.914 18.5 15.9133 18.5C15.9125 18.5 15.9117 18.5 15.911 18.5C15.9102 18.5 15.9094 18.5 15.9086 18.5C15.9078 18.5 15.907 18.5 15.9062 18.5C15.9054 18.5 15.9046 18.5 15.9038 18.5C15.9029 18.5 15.9021 18.5 15.9013 18.5C15.9005 18.5 15.8996 18.5 15.8988 18.5C15.898 18.5 15.8971 18.5 15.8963 18.5C15.8954 18.5 15.8945 18.5 15.8937 18.5C15.8928 18.5 15.8919 18.5 15.8911 18.5C15.8902 18.5 15.8893 18.5 15.8884 18.5C15.8875 18.5 15.8866 18.5 15.8857 18.5C15.8848 18.5 15.8839 18.5 15.883 18.5C15.8821 18.5 15.8812 18.5 15.8803 18.5C15.8793 18.5 15.8784 18.5 15.8775 18.5C15.8765 18.5 15.8756 18.5 15.8746 18.5C15.8737 18.5 15.8727 18.5 15.8718 18.5C15.8708 18.5 15.8698 18.5 15.8689 18.5C15.8679 18.5 15.8669 18.5 15.8659 18.5C15.8649 18.5 15.8639 18.5 15.8629 18.5C15.8619 18.5 15.8609 18.5 15.8599 18.5C15.8589 18.5 15.8579 18.5 15.8568 18.5C15.8558 18.5 15.8548 18.5 15.8537 18.5C15.8527 18.5 15.8516 18.5 15.8506 18.5C15.8495 18.5 15.8485 18.5 15.8474 18.5C15.8463 18.5 15.8453 18.5 15.8442 18.5C15.8431 18.5 15.842 18.5 15.8409 18.5C15.8398 18.5 15.8387 18.5 15.8376 18.5C15.8365 18.5 15.8354 18.5 15.8343 18.5C15.8332 18.5 15.832 18.5 15.8309 18.5C15.8298 18.5 15.8286 18.5 15.8275 18.5C15.8263 18.5 15.8252 18.5 15.824 18.5C15.8228 18.5 15.8217 18.5 15.8205 18.5C15.8193 18.5 15.8181 18.5 15.8169 18.5C15.8158 18.5 15.8146 18.5 15.8133 18.5C15.8121 18.5 15.8109 18.5 15.8097 18.5C15.8085 18.5 15.8073 18.5 15.806 18.5C15.8048 18.5 15.8036 18.5 15.8023 18.5C15.8011 18.5 15.7998 18.5 15.7985 18.5C15.7973 18.5 15.796 18.5 15.7947 18.5C15.7935 18.5 15.7922 18.5 15.7909 18.5C15.7896 18.5 15.7883 18.5 15.787 18.5C15.7857 18.5 15.7844 18.5 15.783 18.5C15.7817 18.5 15.7804 18.5 15.7791 18.5C15.7777 18.5 15.7764 18.5 15.775 18.5C15.7737 18.5 15.7723 18.5 15.771 18.5C15.7696 18.5 15.7682 18.5 15.7668 18.5C15.7655 18.5 15.7641 18.5 15.7627 18.5C15.7613 18.5 15.7599 18.5 15.7585 18.5C15.7571 18.5 15.7556 18.5 15.7542 18.5C15.7528 18.5 15.7514 18.5 15.7499 18.5C15.7485 18.5 15.747 18.5 15.7456 18.5C15.7441 18.5 15.7426 18.5 15.7412 18.5C15.7397 18.5 15.7382 18.5 15.7367 18.5C15.7352 18.5 15.7337 18.5 15.7322 18.5C15.7307 18.5 15.7292 18.5 15.7277 18.5C15.7262 18.5 15.7247 18.5 15.7231 18.5C15.7216 18.5 15.72 18.5 15.7185 18.5C15.7169 18.5 15.7154 18.5 15.7138 18.5C15.7122 18.5 15.7107 18.5 15.7091 18.5C15.7075 18.5 15.7059 18.5 15.7043 18.5C15.7027 18.5 15.7011 18.5 15.6995 18.5C15.6979 18.5 15.6962 18.5 15.6946 18.5C15.693 18.5 15.6913 18.5 15.6897 18.5C15.688 18.5 15.6864 18.5 15.6847 18.5C15.6831 18.5 15.6814 18.5 15.6797 18.5C15.678 18.5 15.6763 18.5 15.6746 18.5C15.6729 18.5 15.6712 18.5 15.6695 18.5C15.6678 18.5 15.6661 18.5 15.6643 18.5C15.6626 18.5 15.6609 18.5 15.6591 18.5C15.6574 18.5 15.6556 18.5 15.6538 18.5C15.6521 18.5 15.6503 18.5 15.6485 18.5C15.6467 18.5 15.6449 18.5 15.6431 18.5C15.6413 18.5 15.6395 18.5 15.6377 18.5C15.6359 18.5 15.6341 18.5 15.6322 18.5C15.6304 18.5 15.6286 18.5 15.6267 18.5C15.6248 18.5 15.623 18.5 15.6211 18.5C15.6192 18.5 15.6174 18.5 15.6155 18.5C15.6136 18.5 15.6117 18.5 15.6098 18.5C15.6079 18.5 15.606 18.5 15.6041 18.5C15.6021 18.5 15.6002 18.5 15.5983 18.5C15.5963 18.5 15.5944 18.5 15.5924 18.5C15.5905 18.5 15.5885 18.5 15.5865 18.5C15.5845 18.5 15.5825 18.5 15.5806 18.5C15.5786 18.5 15.5766 18.5 15.5745 18.5C15.5725 18.5 15.5705 18.5 15.5685 18.5C15.5664 18.5 15.5644 18.5 15.5624 18.5C15.5603 18.5 15.5583 18.5 15.5562 18.5C15.5541 18.5 15.552 18.5 15.55 18.5C15.5479 18.5 15.5458 18.5 15.5437 18.5C15.5416 18.5 15.5395 18.5 15.5373 18.5C15.5352 18.5 15.5331 18.5 15.5309 18.5C15.5288 18.5 15.5266 18.5 15.5245 18.5C15.5223 18.5 15.5202 18.5 15.518 18.5C15.5158 18.5 15.5136 18.5 15.5114 18.5C15.5092 18.5 15.507 18.5 15.5048 18.5C15.5026 18.5 15.5003 18.5 15.4981 18.5C15.4959 18.5 15.4936 18.5 15.4914 18.5C15.4891 18.5 15.4869 18.5 15.4846 18.5C15.4823 18.5 15.48 18.5 15.4777 18.5C15.4754 18.5 15.4731 18.5 15.4708 18.5C15.4685 18.5 15.4662 18.5 15.4639 18.5C15.4615 18.5 15.4592 18.5 15.4568 18.5C15.4545 18.5 15.4521 18.5 15.4497 18.5C15.4474 18.5 15.445 18.5 15.4426 18.5C15.4402 18.5 15.4378 18.5 15.4354 18.5C15.433 18.5 15.4306 18.5 15.4281 18.5C15.4257 18.5 15.4233 18.5 15.4208 18.5C15.4184 18.5 15.4159 18.5 15.4134 18.5C15.411 18.5 15.4085 18.5 15.406 18.5C15.4035 18.5 15.401 18.5 15.3985 18.5C15.396 18.5 15.3934 18.5 15.3909 18.5C15.3884 18.5 15.3858 18.5 15.3833 18.5C15.3807 18.5 15.3782 18.5 15.3756 18.5C15.373 18.5 15.3705 18.5 15.3679 18.5C15.3653 18.5 15.3627 18.5 15.3601 18.5C15.3574 18.5 15.3548 18.5 15.3522 18.5C15.3495 18.5 15.3469 18.5 15.3442 18.5C15.3416 18.5 15.3389 18.5 15.3363 18.5C15.3336 18.5 15.3309 18.5 15.3282 18.5C15.3255 18.5 15.3228 18.5 15.3201 18.5C15.3174 18.5 15.3146 18.5 15.3119 18.5C15.3092 18.5 15.3064 18.5 15.3036 18.5C15.3009 18.5 15.2981 18.5 15.2953 18.5C15.2926 18.5 15.2898 18.5 15.287 18.5C15.2842 18.5 15.2813 18.5 15.2785 18.5C15.2757 18.5 15.2729 18.5 15.27 18.5C15.2672 18.5 15.2643 18.5 15.2615 18.5C15.2586 18.5 15.2557 18.5 15.2528 18.5C15.2499 18.5 15.247 18.5 15.2441 18.5C15.2412 18.5 15.2383 18.5 15.2354 18.5C15.2324 18.5 15.2295 18.5 15.2265 18.5C15.2236 18.5 15.2206 18.5 15.2176 18.5C15.2147 18.5 15.2117 18.5 15.2087 18.5C15.2057 18.5 15.2027 18.5 15.1997 18.5C15.1966 18.5 15.1936 18.5 15.1906 18.5C15.1875 18.5 15.1845 18.5 15.1814 18.5C15.1784 18.5 15.1753 18.5 15.1722 18.5C15.1691 18.5 15.166 18.5 15.1629 18.5C15.1598 18.5 15.1567 18.5 15.1535 18.5C15.1504 18.5 15.1473 18.5 15.1441 18.5C15.141 18.5 15.1378 18.5 15.1346 18.5C15.1314 18.5 15.1283 18.5 15.1251 18.5C15.1219 18.5 15.1186 18.5 15.1154 18.5C15.1122 18.5 15.109 18.5 15.1057 18.5C15.1025 18.5 15.0992 18.5 15.096 18.5C15.0927 18.5 15.0894 18.5 15.0861 18.5C15.0828 18.5 15.0795 18.5 15.0762 18.5C15.0729 18.5 15.0696 18.5 15.0662 18.5C15.0629 18.5 15.0595 18.5 15.0562 18.5C15.0528 18.5 15.0495 18.5 15.0461 18.5C15.0427 18.5 15.0393 18.5 15.0359 18.5C15.0325 18.5 15.0291 18.5 15.0256 18.5C15.0222 18.5 15.0188 18.5 15.0153 18.5C15.0118 18.5 15.0084 18.5 15.0049 18.5C15.0014 18.5 14.9979 18.5 14.9944 18.5C14.9909 18.5 14.9874 18.5 14.9839 18.5C14.9804 18.5 14.9768 18.5 14.9733 18.5C14.9697 18.5 14.9662 18.5 14.9626 18.5C14.959 18.5 14.9554 18.5 14.9518 18.5C14.9482 18.5 14.9446 18.5 14.941 18.5C14.9374 18.5 14.9338 18.5 14.9301 18.5C14.9265 18.5 14.9228 18.5 14.9191 18.5C14.9155 18.5 14.9118 18.5 14.9081 18.5C14.9044 18.5 14.9007 18.5 14.897 18.5C14.8932 18.5 14.8895 18.5 14.8858 18.5C14.882 18.5 14.8783 18.5 14.8745 18.5C14.8707 18.5 14.867 18.5 14.8632 18.5C14.8594 18.5 14.8556 18.5 14.8517 18.5C14.8479 18.5 14.8441 18.5 14.8403 18.5C14.8364 18.5 14.8326 18.5 14.8287 18.5C14.8248 18.5 14.8209 18.5 14.817 18.5C14.8132 18.5 14.8092 18.5 14.8053 18.5C14.8014 18.5 14.7975 18.5 14.7935 18.5C14.7896 18.5 14.7856 18.5 14.7817 18.5C14.7777 18.5 14.7737 18.5 14.7697 18.5C14.7657 18.5 14.7617 18.5 14.7577 18.5C14.7537 18.5 14.7497 18.5 14.7456 18.5C14.7416 18.5 14.7375 18.5 14.7334 18.5C14.7294 18.5 14.7253 18.5 14.7212 18.5C14.7171 18.5 14.713 18.5 14.7089 18.5C14.7047 18.5 14.7006 18.5 14.6965 18.5C14.6923 18.5 14.6881 18.5 14.684 18.5C14.6798 18.5 14.6756 18.5 14.6714 18.5C14.6672 18.5 14.663 18.5 14.6588 18.5C14.6545 18.5 14.6503 18.5 14.6461 18.5C14.6418 18.5 14.6375 18.5 14.6333 18.5C14.629 18.5 14.6247 18.5 14.6204 18.5C14.6161 18.5 14.6118 18.5 14.6074 18.5C14.6031 18.5 14.5988 18.5 14.5944 18.5C14.59 18.5 14.5857 18.5 14.5813 18.5C14.5769 18.5 14.5725 18.5 14.5681 18.5C14.5637 18.5 14.5593 18.5 14.5548 18.5C14.5504 18.5 14.5459 18.5 14.5415 18.5C14.537 18.5 14.5325 18.5 14.528 18.5C14.5235 18.5 14.519 18.5 14.5145 18.5C14.51 18.5 14.5055 18.5 14.5009 18.5C14.4964 18.5 14.4918 18.5 14.4873 18.5C14.4827 18.5 14.4781 18.5 14.4735 18.5C14.4689 18.5 14.4643 18.5 14.4597 18.5C14.455 18.5 14.4504 18.5 14.4457 18.5C14.4411 18.5 14.4364 18.5 14.4317 18.5C14.4271 18.5 14.4224 18.5 14.4176 18.5C14.4129 18.5 14.4082 18.5 14.4035 18.5C14.3987 18.5 14.394 18.5 14.3892 18.5C14.3845 18.5 14.3797 18.5 14.3749 18.5C14.3701 18.5 14.3653 18.5 14.3605 18.5C14.3557 18.5 14.3508 18.5 14.346 18.5C14.3411 18.5 14.3363 18.5 14.3314 18.5C14.3265 18.5 14.3216 18.5 14.3167 18.5C14.3118 18.5 14.3069 18.5 14.302 18.5C14.297 18.5 14.2921 18.5 14.2871 18.5C14.2822 18.5 14.2772 18.5 14.2722 18.5C14.2672 18.5 14.2622 18.5 14.2572 18.5C14.2522 18.5 14.2471 18.5 14.2421 18.5C14.2371 18.5 14.232 18.5 14.2269 18.5C14.2218 18.5 14.2168 18.5 14.2117 18.5C14.2066 18.5 14.2014 18.5 14.1963 18.5C14.1912 18.5 14.186 18.5 14.1809 18.5C14.1757 18.5 14.1705 18.5 14.1653 18.5C14.1602 18.5 14.155 18.5 14.1497 18.5C14.1445 18.5 14.1393 18.5 14.134 18.5C14.1288 18.5 14.1235 18.5 14.1183 18.5C14.113 18.5 14.1077 18.5 14.1024 18.5C14.0971 18.5 14.0918 18.5 14.0864 18.5C14.0811 18.5 14.0757 18.5 14.0704 18.5C14.065 18.5 14.0596 18.5 14.0542 18.5C14.0488 18.5 14.0434 18.5 14.038 18.5C14.0326 18.5 14.0271 18.5 14.0217 18.5C14.0162 18.5 14.0108 18.5 14.0053 18.5C13.9998 18.5 13.9943 18.5 13.9888 18.5C13.9833 18.5 13.9778 18.5 13.9722 18.5C13.9667 18.5 13.9611 18.5 13.9556 18.5C13.95 18.5 13.9444 18.5 13.9388 18.5C13.9332 18.5 13.9276 18.5 13.9219 18.5C13.9163 18.5 13.9107 18.5 13.905 18.5C13.8993 18.5 13.8937 18.5 13.888 18.5C13.8823 18.5 13.8766 18.5 13.8708 18.5C13.8651 18.5 13.8594 18.5 13.8536 18.5C13.8479 18.5 13.8421 18.5 13.8363 18.5C13.8305 18.5 13.8247 18.5 13.8189 18.5C13.8131 18.5 13.8073 18.5 13.8014 18.5C13.7956 18.5 13.7897 18.5 13.7839 18.5C13.778 18.5 13.7721 18.5 13.7662 18.5C13.7603 18.5 13.7544 18.5 13.7484 18.5C13.7425 18.5 13.7365 18.5 13.7306 18.5C13.7246 18.5 13.7186 18.5 13.7126 18.5C13.7066 18.5 13.7006 18.5 13.6946 18.5C13.6885 18.5 13.6825 18.5 13.6764 18.5C13.6704 18.5 13.6643 18.5 13.6582 18.5C13.6521 18.5 13.646 18.5 13.6399 18.5C13.6338 18.5 13.6276 18.5 13.6215 18.5C13.6153 18.5 13.6091 18.5 13.603 18.5C13.5968 18.5 13.5906 18.5 13.5843 18.5C13.5781 18.5 13.5719 18.5 13.5656 18.5C13.5594 18.5 13.5531 18.5 13.5468 18.5C13.5406 18.5 13.5343 18.5 13.5279 18.5C13.5216 18.5 13.5153 18.5 13.509 18.5C13.5026 18.5 13.4963 18.5 13.4899 18.5C13.4835 18.5 13.4771 18.5 13.4707 18.5C13.4643 18.5 13.4579 18.5 13.4514 18.5C13.445 18.5 13.4385 18.5 13.432 18.5C13.4256 18.5 13.4191 18.5 13.4126 18.5C13.4061 18.5 13.3995 18.5 13.393 18.5C13.3865 18.5 13.3799 18.5 13.3733 18.5C13.3668 18.5 13.3602 18.5 13.3536 18.5C13.347 18.5 13.3404 18.5 13.3337 18.5C13.3271 18.5 13.3204 18.5 13.3138 18.5C13.3071 18.5 13.3004 18.5 13.2937 18.5C13.287 18.5 13.2803 18.5 13.2735 18.5C13.2668 18.5 13.2601 18.5 13.2533 18.5C13.2465 18.5 13.2397 18.5 13.2329 18.5C13.2261 18.5 13.2193 18.5 13.2125 18.5C13.2057 18.5 13.1988 18.5 13.1919 18.5C13.1851 18.5 13.1782 18.5 13.1713 18.5C13.1644 18.5 13.1575 18.5 13.1505 18.5C13.1436 18.5 13.1366 18.5 13.1297 18.5C13.1227 18.5 13.1157 18.5 13.1087 18.5C13.1017 18.5 13.0947 18.5 13.0877 18.5C13.0806 18.5 13.0736 18.5 13.0665 18.5C13.0595 18.5 13.0524 18.5 13.0453 18.5C13.0382 18.5 13.031 18.5 13.0239 18.5C13.0168 18.5 13.0096 18.5 13.0025 18.5C12.9953 18.5 12.9881 18.5 12.9809 18.5C12.9737 18.5 12.9665 18.5 12.9592 18.5C12.952 18.5 12.9447 18.5 12.9375 18.5C12.9302 18.5 12.9229 18.5 12.9156 18.5C12.9083 18.5 12.901 18.5 12.8936 18.5C12.8863 18.5 12.8789 18.5 12.8716 18.5C12.8642 18.5 12.8568 18.5 12.8494 18.5C12.842 18.5 12.8346 18.5 12.8271 18.5C12.8197 18.5 12.8122 18.5 12.8047 18.5C12.7972 18.5 12.7898 18.5 12.7822 18.5C12.7747 18.5 12.7672 18.5 12.7597 18.5C12.7521 18.5 12.7445 18.5 12.737 18.5C12.7294 18.5 12.7218 18.5 12.7142 18.5C12.7065 18.5 12.6989 18.5 12.6912 18.5C12.6836 18.5 12.6759 18.5 12.6682 18.5C12.6606 18.5 12.6528 18.5 12.6451 18.5C12.6374 18.5 12.6297 18.5 12.6219 18.5C12.6141 18.5 12.6064 18.5 12.5986 18.5C12.5908 18.5 12.583 18.5 12.5751 18.5C12.5673 18.5 12.5595 18.5 12.5516 18.5C12.5437 18.5 12.5359 18.5 12.528 18.5C12.5201 18.5 12.5121 18.5 12.5042 18.5C12.4963 18.5 12.4883 18.5 12.4803 18.5C12.4724 18.5 12.4644 18.5 12.4564 18.5C12.4484 18.5 12.4403 18.5 12.4323 18.5C12.4243 18.5 12.4162 18.5 12.4081 18.5C12.4 18.5 12.3919 18.5 12.3838 18.5C12.3757 18.5 12.3676 18.5 12.3594 18.5C12.3513 18.5 12.3431 18.5 12.3349 18.5C12.3267 18.5 12.3185 18.5 12.3103 18.5C12.3021 18.5 12.2938 18.5 12.2856 18.5C12.2773 18.5 12.269 18.5 12.2607 18.5C12.2524 18.5 12.2441 18.5 12.2358 18.5C12.2275 18.5 12.2191 18.5 12.2107 18.5C12.2024 18.5 12.194 18.5 12.1856 18.5C12.1772 18.5 12.1687 18.5 12.1603 18.5C12.1519 18.5 12.1434 18.5 12.1349 18.5C12.1264 18.5 12.1179 18.5 12.1094 18.5C12.1009 18.5 12.0924 18.5 12.0838 18.5C12.0753 18.5 12.0667 18.5 12.0581 18.5C12.0495 18.5 12.0409 18.5 12.0323 18.5C12.0236 18.5 12.015 18.5 12.0063 18.5C11.9977 18.5 11.989 18.5 11.9803 18.5C11.9716 18.5 11.9628 18.5 11.9541 18.5C11.9454 18.5 11.9366 18.5 11.9278 18.5C11.9191 18.5 11.9103 18.5 11.9014 18.5C11.8926 18.5 11.8838 18.5 11.8749 18.5C11.8661 18.5 11.8572 18.5 11.8483 18.5C11.8394 18.5 11.8305 18.5 11.8216 18.5C11.8127 18.5 11.8037 18.5 11.7948 18.5C11.7858 18.5 11.7768 18.5 11.7678 18.5C11.7588 18.5 11.7498 18.5 11.7407 18.5C11.7317 18.5 11.7226 18.5 11.7135 18.5C11.7045 18.5 11.6954 18.5 11.6862 18.5C11.6771 18.5 11.668 18.5 11.6588 18.5C11.6497 18.5 11.6405 18.5 11.6313 18.5C11.6221 18.5 11.6129 18.5 11.6037 18.5C11.5944 18.5 11.5852 18.5 11.5759 18.5C11.5666 18.5 11.5573 18.5 11.548 18.5C11.5387 18.5 11.5294 18.5 11.52 18.5C11.5107 18.5 11.5013 18.5 11.4919 18.5C11.4825 18.5 11.4731 18.5 11.4637 18.5C11.4543 18.5 11.4448 18.5 11.4353 18.5C11.4259 18.5 11.4164 18.5 11.4069 18.5C11.3974 18.5 11.3879 18.5 11.3783 18.5C11.3688 18.5 11.3592 18.5 11.3496 18.5C11.34 18.5 11.3304 18.5 11.3208 18.5C11.3112 18.5 11.3015 18.5 11.2919 18.5C11.2822 18.5 11.2725 18.5 11.2628 18.5C11.2531 18.5 11.2434 18.5 11.2337 18.5C11.2239 18.5 11.2142 18.5 11.2044 18.5C11.1946 18.5 11.1848 18.5 11.175 18.5C11.1652 18.5 11.1553 18.5 11.1455 18.5C11.1356 18.5 11.1257 18.5 11.1158 18.5C11.1059 18.5 11.096 18.5 11.0861 18.5C11.0761 18.5 11.0662 18.5 11.0562 18.5C11.0462 18.5 11.0362 18.5 11.0262 18.5C11.0162 18.5 11.0061 18.5 10.9961 18.5C10.986 18.5 10.9759 18.5 10.9658 18.5C10.9557 18.5 10.9456 18.5 10.9355 18.5C10.9253 18.5 10.9152 18.5 10.905 18.5C10.8948 18.5 10.8846 18.5 10.8744 18.5C10.8642 18.5 10.8539 18.5 10.8437 18.5C10.8334 18.5 10.8231 18.5 10.8128 18.5C10.8025 18.5 10.7922 18.5 10.7818 18.5C10.7715 18.5 10.7611 18.5 10.7507 18.5C10.7404 18.5 10.73 18.5 10.7195 18.5C10.7091 18.5 10.6987 18.5 10.6882 18.5C10.6777 18.5 10.6672 18.5 10.6567 18.5C10.6462 18.5 10.6357 18.5 10.6252 18.5C10.6146 18.5 10.604 18.5 10.5934 18.5C10.5829 18.5 10.5723 18.5 10.5616 18.5C10.551 18.5 10.5403 18.5 10.5297 18.5C10.519 18.5 10.5083 18.5 10.4976 18.5C10.4869 18.5 10.4761 18.5 10.4654 18.5C10.4546 18.5 10.4439 18.5 10.4331 18.5C10.4223 18.5 10.4114 18.5 10.4006 18.5C10.3898 18.5 10.3789 18.5 10.368 18.5C10.3572 18.5 10.3463 18.5 10.3353 18.5C10.3244 18.5 10.3135 18.5 10.3025 18.5C10.2915 18.5 10.2806 18.5 10.2696 18.5C10.2585 18.5 10.2475 18.5 10.2365 18.5C10.2254 18.5 10.2144 18.5 10.2033 18.5C10.1922 18.5 10.1811 18.5 10.1699 18.5C10.1588 18.5 10.1477 18.5 10.1365 18.5C10.1253 18.5 10.1141 18.5 10.1029 18.5C10.0917 18.5 10.0804 18.5 10.0692 18.5C10.0579 18.5 10.0466 18.5 10.0353 18.5C10.024 18.5 10.0127 18.5 10.0014 18.5C9.99003 18.5 9.97866 18.5 9.96728 18.5C9.95589 18.5 9.94448 18.5 9.93305 18.5C9.92162 18.5 9.91017 18.5 9.8987 18.5C9.88723 18.5 9.87574 18.5 9.86422 18.5C9.85271 18.5 9.84117 18.5 9.82961 18.5C9.81805 18.5 9.80647 18.5 9.79487 18.5C9.78327 18.5 9.77165 18.5 9.76 18.5C9.74836 18.5 9.73669 18.5 9.72501 18.5C9.71332 18.5 9.70161 18.5 9.68988 18.5C9.67815 18.5 9.66639 18.5 9.65462 18.5C9.64285 18.5 9.63105 18.5 9.61923 18.5C9.60741 18.5 9.59557 18.5 9.58371 18.5C9.57185 18.5 9.55997 18.5 9.54806 18.5V19.5ZM21.5 13.9131C21.5 9.78345 20.924 6.40067 18.9931 4.05707C17.0427 1.68971 13.8136 0.5 8.80923 0.5V1.5C13.6785 1.5 16.5449 2.65812 18.2214 4.69294C19.9174 6.75152 20.5 9.82527 20.5 13.9131H21.5ZM8.80923 0.5C5.97389 0.5 3.8426 1.69855 2.45036 3.50755C1.06886 5.30259 0.433369 7.67169 0.505519 10.0154C0.577694 12.3599 1.35919 14.7235 2.86871 16.5102C4.38764 18.308 6.62747 19.5 9.54806 19.5V18.5C6.92739 18.5 4.96509 17.442 3.63258 15.8648C2.29066 14.2765 1.5714 12.1401 1.50505 9.98461C1.43866 7.82831 2.02687 5.69741 3.24284 4.11745C4.44807 2.55145 6.28802 1.5 8.80923 1.5V0.5Z" fill="white"/>
</svg>
