<svg width="19" height="21" viewBox="0 0 19 21" fill="none" xmlns="http://www.w3.org/2000/svg">
<line x1="18.5" y1="-2.09962e-08" x2="18.5" y2="20" stroke="white"/>
<line x1="11.625" y1="-2.09962e-08" x2="11.625" y2="20" stroke="white"/>
<path d="M3.89645 20.3536C4.09171 20.5488 4.40829 20.5488 4.60355 20.3536L7.78553 17.1716C7.9808 16.9763 7.9808 16.6597 7.78553 16.4645C7.59027 16.2692 7.27369 16.2692 7.07843 16.4645L4.25 19.2929L1.42157 16.4645C1.22631 16.2692 0.909729 16.2692 0.714467 16.4645C0.519205 16.6597 0.519205 16.9763 0.714467 17.1716L3.89645 20.3536ZM3.75 2.09962e-08L3.75 20L4.75 20L4.75 -2.09962e-08L3.75 2.09962e-08Z" fill="white"/>
</svg>
