<svg width="21" height="23" viewBox="0 0 21 23" fill="none" xmlns="http://www.w3.org/2000/svg">
<line y1="-0.5" x2="22" y2="-0.5" transform="matrix(-4.37114e-08 1 1 4.37114e-08 1 0)" stroke="white"/>
<line y1="-0.5" x2="22" y2="-0.5" transform="matrix(-4.37114e-08 1 1 4.37114e-08 9.125 0)" stroke="white"/>
<path d="M17.6036 22.3536C17.4083 22.5488 17.0917 22.5488 16.8964 22.3536L13.7145 19.1716C13.5192 18.9763 13.5192 18.6597 13.7145 18.4645C13.9097 18.2692 14.2263 18.2692 14.4216 18.4645L17.25 21.2929L20.0784 18.4645C20.2737 18.2692 20.5903 18.2692 20.7855 18.4645C20.9808 18.6597 20.9808 18.9763 20.7855 19.1716L17.6036 22.3536ZM17.75 2.18557e-08L17.75 22L16.75 22L16.75 -2.18557e-08L17.75 2.18557e-08Z" fill="white"/>
</svg>
