<svg width="21" height="23" viewBox="0 0 21 23" fill="none" xmlns="http://www.w3.org/2000/svg">
<line x1="0.5" y1="23" x2="0.499999" y2="1" stroke="white"/>
<line x1="8.625" y1="23" x2="8.625" y2="1" stroke="white"/>
<path d="M17.6036 0.646442C17.4083 0.45118 17.0917 0.45118 16.8964 0.646442L13.7145 3.82842C13.5192 4.02369 13.5192 4.34027 13.7145 4.53553C13.9097 4.73079 14.2263 4.73079 14.4216 4.53553L17.25 1.7071L20.0784 4.53553C20.2737 4.73079 20.5903 4.73079 20.7855 4.53553C20.9808 4.34027 20.9808 4.02368 20.7855 3.82842L17.6036 0.646442ZM17.75 23L17.75 0.999996L16.75 0.999996L16.75 23L17.75 23Z" fill="white"/>
</svg>
