<svg width="23" height="21" viewBox="0 0 23 21" fill="none" xmlns="http://www.w3.org/2000/svg">
<line y1="-0.5" x2="22" y2="-0.5" transform="matrix(1 8.74228e-08 8.74228e-08 -1 0 20)" stroke="white"/>
<line y1="-0.5" x2="22" y2="-0.5" transform="matrix(1 8.74228e-08 8.74228e-08 -1 0 11.875)" stroke="white"/>
<path d="M22.3536 3.39645C22.5488 3.59171 22.5488 3.90829 22.3536 4.10356L19.1716 7.28554C18.9763 7.4808 18.6597 7.4808 18.4645 7.28554C18.2692 7.09027 18.2692 6.77369 18.4645 6.57843L21.2929 3.75L18.4645 0.921574C18.2692 0.726312 18.2692 0.40973 18.4645 0.214468C18.6597 0.0192056 18.9763 0.0192056 19.1716 0.214468L22.3536 3.39645ZM4.37114e-08 3.25L22 3.25L22 4.25L-4.37114e-08 4.25L4.37114e-08 3.25Z" fill="white"/>
</svg>
