<svg width="210" height="44" viewBox="0 0 210 44" fill="none" xmlns="http://www.w3.org/2000/svg">
<path d="M209.733 44H97.5191C97.5191 44 97.5191 44 97.5191 41.0488C97.5191 38.7491 109.008 41.0488 109.008 34.6098C109.008 29.2439 97.5191 31.9268 97.5191 29.2439C97.5191 25.8229 97.5191 21.8592 97.5191 17.9756C97.5191 16.1476 85.4962 14.0691 85.4962 12.3415C85.4962 9.87402 85.4962 6.77031 85.4962 4.82927C85.4962 1.27987 97.5191 -3.8147e-06 97.5191 -3.8147e-06H209.733V44Z" fill="white"/>
<path d="M0 0H112.214C112.214 0 112.214 0 112.214 2.95122C112.214 5.25087 100.725 2.95122 100.725 9.39024C100.725 14.7561 112.214 12.0732 112.214 14.7561C112.214 18.1771 112.214 22.1408 112.214 26.0244C112.214 27.8524 124.237 29.9309 124.237 31.6585C124.237 34.126 124.237 37.2297 124.237 39.1707C124.237 42.7201 112.214 44 112.214 44H0V0Z" fill="#015DA7"/>
<path d="M210 44H112.214C112.214 44 112.214 44 112.214 41.0488C112.214 38.7491 122.225 41.0488 122.225 34.6098C122.225 29.2439 112.214 31.9268 112.214 29.2439C112.214 17.7073 112.214 -3.8147e-06 112.214 -3.8147e-06H210V44Z" fill="white"/>
<path d="M14.2681 34.3415H5.34232C5.04593 34.3415 4.89774 34.2041 4.89774 33.9294V32.1779C4.89774 31.9032 5.04593 31.7659 5.34232 31.7659H7.9414V12.2599H5.34232C5.04593 12.2599 4.89774 12.1225 4.89774 11.8478V10.0964C4.89774 9.82166 5.04593 9.68429 5.34232 9.68429H15.8754C18.2921 9.68429 20.2643 10.394 21.7918 11.8135C23.3421 13.21 24.1173 15.1102 24.1173 17.5141C24.1173 19.8952 23.3649 21.7496 21.8602 23.0775C20.3554 24.3824 18.2351 25.0349 15.4993 25.0349H10.9167V31.7659H14.2681C14.5417 31.7659 14.6785 31.9032 14.6785 32.1779V33.9294C14.6785 34.2041 14.5417 34.3415 14.2681 34.3415ZM10.9167 22.5967H15.3625C19.1927 22.5967 21.1078 20.9025 21.1078 17.5141C21.1078 15.7513 20.5606 14.4349 19.4663 13.5649C18.3947 12.6949 17.0382 12.2599 15.3967 12.2599H10.9167V22.5967Z" fill="black"/>
<path d="M44.1464 34.3415H41.1711C40.1907 34.3415 39.7006 33.8607 39.7006 32.8991V31.6285H39.598C38.6632 33.5974 36.8849 34.5819 34.263 34.5819C32.4391 34.5819 30.9914 34.0438 29.9198 32.9678C28.871 31.8689 28.3353 30.4151 28.3125 28.6064V19.7463H26.3632C26.0896 19.7463 25.9528 19.609 25.9528 19.3342V17.8576C25.9528 17.5828 26.0896 17.4455 26.3632 17.4455H29.6462C30.6266 17.4455 31.1167 17.9262 31.1167 18.8878V27.9196C31.1167 29.2475 31.4359 30.2777 32.0743 31.0103C32.7127 31.743 33.6474 32.1093 34.8786 32.1093C36.5429 32.1093 37.8538 31.4911 38.8114 30.2548C39.2218 29.7283 39.427 29.3734 39.427 29.1902V19.7463H37.5803C37.3067 19.7463 37.1699 19.609 37.1699 19.3342V17.8576C37.1699 17.5828 37.3067 17.4455 37.5803 17.4455H41.8209C42.0945 17.4455 42.2313 17.5828 42.2313 17.8576V32.0406H44.1464C44.4428 32.0406 44.5909 32.1779 44.5909 32.4527V33.9294C44.5909 34.2041 44.4428 34.3415 44.1464 34.3415Z" fill="black"/>
<path d="M61.909 34.3415H47.6482C47.3518 34.3415 47.2037 34.2041 47.2037 33.9294V32.5214C47.2037 32.0864 47.3746 31.6972 47.7166 31.3538L58.7969 19.7463H49.5292V22.3906C49.5292 22.6654 49.3924 22.8027 49.1188 22.8027H47.6482C47.3518 22.8027 47.2037 22.6654 47.2037 22.3906V17.8576C47.2037 17.5828 47.3518 17.4455 47.6482 17.4455H61.909C62.2054 17.4455 62.3536 17.5828 62.3536 17.8576V19.0595C62.3536 19.4716 62.1712 19.8379 61.8064 20.1584L50.5893 32.0406H59.9939V29.3276C59.9939 29.0529 60.1421 28.9155 60.4385 28.9155H61.909C62.2054 28.9155 62.3536 29.0529 62.3536 29.3276V33.9294C62.3536 34.2041 62.2054 34.3415 61.909 34.3415Z" fill="black"/>
<path d="M79.6428 34.3415H65.382C65.0856 34.3415 64.9374 34.2041 64.9374 33.9294V32.5214C64.9374 32.0864 65.1084 31.6972 65.4504 31.3538L76.5307 19.7463H67.2629V22.3906C67.2629 22.6654 67.1261 22.8027 66.8526 22.8027H65.382C65.0856 22.8027 64.9374 22.6654 64.9374 22.3906V17.8576C64.9374 17.5828 65.0856 17.4455 65.382 17.4455H79.6428C79.9392 17.4455 80.0874 17.5828 80.0874 17.8576V19.0595C80.0874 19.4716 79.905 19.8379 79.5402 20.1584L68.3231 32.0406H77.7277V29.3276C77.7277 29.0529 77.8759 28.9155 78.1722 28.9155H79.6428C79.9392 28.9155 80.0874 29.0529 80.0874 29.3276V33.9294C80.0874 34.2041 79.9392 34.3415 79.6428 34.3415Z" fill="black"/>
<path d="M89.6477 34.3415H83.1158C82.8194 34.3415 82.6712 34.2041 82.6712 33.9294V32.4527C82.6712 32.1779 82.8194 32.0406 83.1158 32.0406H84.9967V11.9852H83.1158C82.8194 11.9852 82.6712 11.8478 82.6712 11.5731V10.0964C82.6712 9.82166 82.8194 9.68429 83.1158 9.68429H86.9118C87.5274 9.68429 87.8352 9.97047 87.8352 10.5428V32.0406H89.6477C89.9441 32.0406 90.0923 32.1779 90.0923 32.4527V33.9294C90.0923 34.2041 89.9441 34.3415 89.6477 34.3415Z" fill="black"/>
<path d="M107.708 26.2369H95.3968C95.488 28.1371 96.0808 29.6023 97.1751 30.6326C98.2923 31.6628 99.5462 32.1779 100.937 32.1779C102.328 32.1779 103.513 31.8803 104.494 31.2851C105.497 30.6898 106.169 30.106 106.511 29.5337C106.694 29.3047 106.899 29.2704 107.127 29.4306L108.05 30.3579C108.187 30.4952 108.255 30.6211 108.255 30.7356C108.255 30.8272 108.198 30.9531 108.084 31.1134C107.993 31.2736 107.788 31.5255 107.469 31.8689C107.15 32.2123 106.694 32.6015 106.101 33.0365C105.531 33.4715 104.779 33.8378 103.844 34.1354C102.932 34.433 101.951 34.5819 100.903 34.5819C98.5089 34.5819 96.5025 33.792 94.8838 32.2123C93.2879 30.6326 92.4899 28.5149 92.4899 25.8591C92.4899 23.1805 93.2879 21.0742 94.8838 19.5403C96.4797 17.9835 98.4291 17.2051 100.732 17.2051C103.057 17.2051 104.881 17.9606 106.204 19.4716C107.526 20.9597 108.187 22.9744 108.187 25.5157C108.187 25.6073 108.187 25.6989 108.187 25.7904C108.187 26.0881 108.027 26.2369 107.708 26.2369ZM105.349 24.142C105.28 22.7226 104.836 21.5893 104.015 20.7422C103.194 19.8952 102.1 19.4716 100.732 19.4716C99.3638 19.4716 98.1897 19.8608 97.2093 20.6392C96.229 21.4176 95.6476 22.5852 95.4652 24.142H105.349Z" fill="black"/>
<path d="M140.934 34.3415H138.164C137.685 34.3415 137.138 33.9179 136.523 33.0708L135.804 32.0406C134.186 33.7348 132.1 34.5819 129.546 34.5819C127.015 34.5819 125.055 33.8836 123.664 32.487C122.273 31.0676 121.578 29.4535 121.578 27.6449C121.578 25.5157 122.296 23.8444 123.732 22.631C124.85 21.6924 126.081 20.9483 127.426 20.3988C125.875 18.5902 125.1 16.8159 125.1 15.0759C125.1 13.3359 125.636 11.9737 126.708 10.9893C127.802 9.98192 129.147 9.47824 130.743 9.47824C132.339 9.47824 133.684 9.93613 134.778 10.8519C135.896 11.7677 136.454 13.0498 136.454 14.6981C136.454 16.3465 135.975 17.6515 135.018 18.6131C134.083 19.5746 132.818 20.4561 131.222 21.2574L135.77 27.7479C136.363 26.5345 136.659 24.8174 136.659 22.5967C136.659 22.3219 136.808 22.1846 137.104 22.1846H141.618C141.892 22.1846 142.029 22.3219 142.029 22.5967V23.8673C142.029 24.142 141.892 24.2794 141.618 24.2794H139.087C138.996 26.3399 138.438 28.263 137.412 30.0488L138.78 31.9719H140.934C141.231 31.9719 141.379 32.1093 141.379 32.384V33.9294C141.379 34.2041 141.231 34.3415 140.934 34.3415ZM124.622 27.5762C124.622 28.927 125.112 30.0144 126.092 30.8386C127.072 31.6628 128.269 32.0749 129.683 32.0749C131.644 32.0749 133.194 31.3881 134.334 30.0144L128.931 22.425C126.924 23.295 125.625 24.3366 125.032 25.55C124.758 26.1682 124.622 26.8436 124.622 27.5762ZM133.513 16.6213C133.741 16.1405 133.855 15.5338 133.855 14.8012C133.855 14.0686 133.593 13.4161 133.069 12.8437C132.567 12.2485 131.849 11.9508 130.914 11.9508C130.002 11.9508 129.261 12.237 128.691 12.8094C128.121 13.3817 127.836 14.2174 127.836 15.3163C127.836 16.3923 128.509 17.7545 129.854 19.4029C131.883 18.51 133.103 17.5828 133.513 16.6213Z" fill="black"/>
<path d="M177.913 28.1257C178.027 28.2172 178.084 28.3317 178.084 28.4691C178.084 28.5835 178.027 28.7553 177.913 28.9842C177.822 29.1902 177.651 29.4764 177.4 29.8427C177.172 30.1861 176.75 30.6669 176.135 31.2851C175.519 31.9032 174.847 32.4412 174.117 32.8991C173.388 33.3341 172.419 33.7233 171.21 34.0667C170.025 34.4101 168.748 34.5819 167.38 34.5819C164.051 34.5819 161.27 33.4142 159.036 31.079C156.824 28.7438 155.718 25.6874 155.718 21.9099C155.718 18.1094 156.836 15.0873 159.07 12.8437C161.327 10.6001 164.04 9.47824 167.209 9.47824C170.743 9.47824 173.308 10.7031 174.904 13.1528L174.87 10.0964C174.824 9.82166 174.961 9.68429 175.28 9.68429H177.195C177.491 9.68429 177.64 9.82166 177.64 10.0964V17.5828C177.64 17.8805 177.491 18.0293 177.195 18.0293H175.04C174.767 18.0293 174.63 17.8805 174.63 17.5828V17.2738C174.63 16.2206 173.912 15.1331 172.476 14.0113C171.062 12.8666 169.295 12.2942 167.175 12.2942C165.055 12.2942 163.139 13.1413 161.43 14.8355C159.742 16.5068 158.899 18.8878 158.899 21.9785C158.899 25.0464 159.754 27.4388 161.464 29.1559C163.174 30.8501 165.18 31.6972 167.483 31.6972C169.968 31.6972 171.928 31.1363 173.365 30.0144C174.482 29.1445 175.303 28.263 175.827 27.3701C176.009 27.0267 176.226 26.958 176.477 27.1641L177.913 28.1257Z" fill="black"/>
<path d="M188.069 34.3415H181.537C181.24 34.3415 181.092 34.2041 181.092 33.9294V32.4527C181.092 32.1779 181.24 32.0406 181.537 32.0406H183.418V19.7463H181.537C181.24 19.7463 181.092 19.609 181.092 19.3342V17.8576C181.092 17.5828 181.24 17.4455 181.537 17.4455H185.846C186.119 17.4455 186.256 17.5828 186.256 17.8576V32.0406H188.069C188.365 32.0406 188.513 32.1779 188.513 32.4527V33.9294C188.513 34.2041 188.365 34.3415 188.069 34.3415ZM186.119 12.3629C186.507 12.7521 186.701 13.21 186.701 13.7366C186.701 14.2632 186.507 14.7096 186.119 15.0759C185.754 15.4422 185.31 15.6254 184.785 15.6254C184.261 15.6254 183.805 15.4422 183.418 15.0759C183.053 14.7096 182.87 14.2632 182.87 13.7366C182.87 13.21 183.053 12.7521 183.418 12.3629C183.805 11.9737 184.261 11.7791 184.785 11.7791C185.31 11.7791 185.754 11.9737 186.119 12.3629Z" fill="black"/>
<path d="M205.929 26.2369H193.617C193.708 28.1371 194.301 29.6023 195.396 30.6326C196.513 31.6628 197.767 32.1779 199.157 32.1779C200.548 32.1779 201.734 31.8803 202.714 31.2851C203.717 30.6898 204.39 30.106 204.732 29.5337C204.914 29.3047 205.119 29.2704 205.347 29.4306L206.271 30.3579C206.407 30.4952 206.476 30.6211 206.476 30.7356C206.476 30.8272 206.419 30.9531 206.305 31.1134C206.214 31.2736 206.008 31.5255 205.689 31.8689C205.37 32.2123 204.914 32.6015 204.321 33.0365C203.751 33.4715 202.999 33.8378 202.064 34.1354C201.152 34.433 200.172 34.5819 199.123 34.5819C196.729 34.5819 194.723 33.792 193.104 32.2123C191.508 30.6326 190.71 28.5149 190.71 25.8591C190.71 23.1805 191.508 21.0742 193.104 19.5403C194.7 17.9835 196.649 17.2051 198.952 17.2051C201.278 17.2051 203.102 17.9606 204.424 19.4716C205.746 20.9597 206.407 22.9744 206.407 25.5157C206.407 25.6073 206.407 25.6989 206.407 25.7904C206.407 26.0881 206.248 26.2369 205.929 26.2369ZM203.569 24.142C203.501 22.7226 203.056 21.5893 202.235 20.7422C201.414 19.8952 200.32 19.4716 198.952 19.4716C197.584 19.4716 196.41 19.8608 195.43 20.6392C194.449 21.4176 193.868 22.5852 193.686 24.142H203.569Z" fill="black"/>
<path d="M14.2681 34.3415H5.34232C5.04593 34.3415 4.89774 34.2041 4.89774 33.9294V32.178C4.89774 31.9032 5.04593 31.7659 5.34232 31.7659H7.9414V12.2599H5.34232C5.04593 12.2599 4.89774 12.1225 4.89774 11.8478V10.0964C4.89774 9.82166 5.04593 9.6843 5.34232 9.6843H15.8754C18.2921 9.6843 20.2643 10.394 21.7918 11.8135C23.3421 13.21 24.1173 15.1102 24.1173 17.5142C24.1173 19.8952 23.3649 21.7496 21.8602 23.0775C20.3554 24.3824 18.2351 25.0349 15.4993 25.0349H10.9167V31.7659H14.2681C14.5417 31.7659 14.6785 31.9032 14.6785 32.178V33.9294C14.6785 34.2041 14.5417 34.3415 14.2681 34.3415ZM10.9167 22.5967H15.3625C19.1927 22.5967 21.1078 20.9025 21.1078 17.5142C21.1078 15.7513 20.5606 14.4349 19.4663 13.5649C18.3947 12.6949 17.0382 12.2599 15.3967 12.2599H10.9167V22.5967Z" fill="white"/>
<path d="M44.1464 34.3415H41.1711C40.1907 34.3415 39.7006 33.8607 39.7006 32.8991V31.6285H39.598C38.6632 33.5974 36.8849 34.5819 34.263 34.5819C32.4391 34.5819 30.9914 34.0438 29.9198 32.9678C28.871 31.8689 28.3353 30.4151 28.3125 28.6064V19.7463H26.3632C26.0896 19.7463 25.9528 19.609 25.9528 19.3342V17.8576C25.9528 17.5828 26.0896 17.4455 26.3632 17.4455H29.6462C30.6266 17.4455 31.1167 17.9262 31.1167 18.8878V27.9196C31.1167 29.2475 31.4359 30.2777 32.0743 31.0103C32.7127 31.743 33.6474 32.1093 34.8786 32.1093C36.5429 32.1093 37.8538 31.4911 38.8114 30.2548C39.2218 29.7283 39.427 29.3734 39.427 29.1902V19.7463H37.5803C37.3067 19.7463 37.1699 19.609 37.1699 19.3342V17.8576C37.1699 17.5828 37.3067 17.4455 37.5803 17.4455H41.8209C42.0945 17.4455 42.2313 17.5828 42.2313 17.8576V32.0406H44.1464C44.4428 32.0406 44.5909 32.178 44.5909 32.4527V33.9294C44.5909 34.2041 44.4428 34.3415 44.1464 34.3415Z" fill="white"/>
<path d="M61.909 34.3415H47.6482C47.3518 34.3415 47.2037 34.2041 47.2037 33.9294V32.5214C47.2037 32.0864 47.3746 31.6972 47.7166 31.3538L58.7969 19.7463H49.5292V22.3906C49.5292 22.6654 49.3924 22.8027 49.1188 22.8027H47.6482C47.3518 22.8027 47.2037 22.6654 47.2037 22.3906V17.8576C47.2037 17.5828 47.3518 17.4455 47.6482 17.4455H61.909C62.2054 17.4455 62.3536 17.5828 62.3536 17.8576V19.0595C62.3536 19.4716 62.1712 19.8379 61.8064 20.1584L50.5893 32.0406H59.9939V29.3276C59.9939 29.0529 60.1421 28.9155 60.4385 28.9155H61.909C62.2054 28.9155 62.3536 29.0529 62.3536 29.3276V33.9294C62.3536 34.2041 62.2054 34.3415 61.909 34.3415Z" fill="white"/>
<path d="M79.6428 34.3415H65.382C65.0856 34.3415 64.9374 34.2041 64.9374 33.9294V32.5214C64.9374 32.0864 65.1084 31.6972 65.4504 31.3538L76.5307 19.7463H67.2629V22.3906C67.2629 22.6654 67.1261 22.8027 66.8526 22.8027H65.382C65.0856 22.8027 64.9374 22.6654 64.9374 22.3906V17.8576C64.9374 17.5828 65.0856 17.4455 65.382 17.4455H79.6428C79.9392 17.4455 80.0874 17.5828 80.0874 17.8576V19.0595C80.0874 19.4716 79.905 19.8379 79.5402 20.1584L68.3231 32.0406H77.7277V29.3276C77.7277 29.0529 77.8759 28.9155 78.1722 28.9155H79.6428C79.9392 28.9155 80.0874 29.0529 80.0874 29.3276V33.9294C80.0874 34.2041 79.9392 34.3415 79.6428 34.3415Z" fill="white"/>
<path d="M89.6477 34.3415H83.1158C82.8194 34.3415 82.6712 34.2041 82.6712 33.9294V32.4527C82.6712 32.178 82.8194 32.0406 83.1158 32.0406H84.9967V11.9852H83.1158C82.8194 11.9852 82.6712 11.8478 82.6712 11.5731V10.0964C82.6712 9.82166 82.8194 9.6843 83.1158 9.6843H86.9118C87.5274 9.6843 87.8352 9.97047 87.8352 10.5428V32.0406H89.6477C89.9441 32.0406 90.0923 32.178 90.0923 32.4527V33.9294C90.0923 34.2041 89.9441 34.3415 89.6477 34.3415Z" fill="white"/>
<path d="M107.708 26.2369H95.3968C95.488 28.1371 96.0808 29.6023 97.1751 30.6326C98.2923 31.6628 99.5462 32.178 100.937 32.178C102.328 32.178 103.513 31.8803 104.494 31.2851C105.497 30.6898 106.169 30.106 106.511 29.5337C106.694 29.3047 106.899 29.2704 107.127 29.4306L108.05 30.3579C108.187 30.4952 108.255 30.6211 108.255 30.7356C108.255 30.8272 108.198 30.9531 108.084 31.1134C107.993 31.2736 107.788 31.5255 107.469 31.8689C107.15 32.2123 106.694 32.6015 106.101 33.0365C105.531 33.4715 104.779 33.8378 103.844 34.1354C102.932 34.433 101.951 34.5819 100.903 34.5819C98.5089 34.5819 96.5025 33.792 94.8838 32.2123C93.2879 30.6326 92.4899 28.5149 92.4899 25.8591C92.4899 23.1805 93.2879 21.0742 94.8838 19.5403C96.4797 17.9835 98.4291 17.2051 100.732 17.2051C103.057 17.2051 104.881 17.9606 106.204 19.4716C107.526 20.9597 108.187 22.9744 108.187 25.5157C108.187 25.6073 108.187 25.6989 108.187 25.7904C108.187 26.0881 108.027 26.2369 107.708 26.2369ZM105.349 24.1421C105.28 22.7226 104.836 21.5893 104.015 20.7422C103.194 19.8952 102.1 19.4716 100.732 19.4716C99.3638 19.4716 98.1897 19.8608 97.2093 20.6392C96.229 21.4176 95.6476 22.5852 95.4652 24.1421H105.349Z" fill="white"/>
</svg>
